<svg width="120" height="120" viewBox="0 0 120 120" fill="none" xmlns="http://www.w3.org/2000/svg">
<path d="M69.3891 54.3766H50.6611L23.8996 79.6318C9.13805 93.5398 19.2301 118.092 39.2134 118.092H80.8368C89.9247 118.042 98.1088 112.469 101.473 104.033C104.837 95.5983 102.728 85.908 96.1004 79.6318L69.3891 54.3766Z" fill="#DEF2F9"/>
<path d="M75.0125 28.1172C70.9456 41.6736 71.7489 38.9623 69.3891 46.8452H50.6611C48.2008 38.9121 49.1046 41.7239 44.9874 28.1172H75.0125Z" fill="#DEF2F9"/>
<path d="M76.1171 83.1465L79.7322 81.0879L75.9665 74.6109L72.3514 76.7197C70.0418 74.2092 67.0293 72.5021 63.7657 71.749V67.5816H56.2343V71.749C52.9205 72.5021 49.9079 74.2594 47.6485 76.7197L44.0335 74.6109L40.2678 81.0879L43.8828 83.1465C42.8786 86.4101 42.8786 89.8745 43.8828 93.1381L40.2678 95.1967L44.0335 101.674L47.6485 99.5649C49.9581 102.075 52.9707 103.782 56.2343 104.536V108.703H63.7657V104.536C67.0795 103.782 70.092 102.025 72.3514 99.5649L75.9665 101.674L79.7322 95.1967L76.1171 93.1381C77.1213 89.8745 77.1213 86.4101 76.1171 83.1465Z" fill="white"/>
<path d="M118.142 0H1.85774C0.853556 0 0 0.853557 0 1.85774V97.5063C0 98.5607 0.853556 99.364 1.85774 99.364H15.2636C17.0209 111.213 27.1632 119.95 39.113 120H80.8368C92.7866 119.95 102.929 111.213 104.686 99.364H118.092C119.146 99.364 119.95 98.5105 119.95 97.5063V1.85774C120 0.853557 119.146 0 118.142 0ZM3.76569 3.76569H116.285V15.0126H3.76569V3.76569ZM80.8368 116.234H39.1632C30.8284 116.234 23.2971 111.113 20.2343 103.381C17.1715 95.6485 19.0795 86.7615 25.1548 81.0377L51.364 56.2845H68.636L94.8954 81.0377C100.971 86.7615 102.879 95.6485 99.8159 103.381C96.7531 111.113 89.2217 116.234 80.8368 116.234ZM67.9833 44.9874H52.0167L47.4979 29.9749H72.4519L67.9833 44.9874ZM50.6109 48.7531H69.3389C70.3933 48.7531 71.1966 49.6067 71.1966 50.6109C71.1966 51.6151 70.3431 52.4686 69.3389 52.4686H50.6109C49.5565 52.4686 48.7531 51.6151 48.7531 50.6109C48.7531 49.6067 49.6067 48.7531 50.6109 48.7531ZM104.987 95.6485C104.937 89.0711 102.226 82.8452 97.5063 78.3264L72.8033 55.0293C74.3598 53.8243 75.113 51.9163 74.9121 49.9582C74.7113 48 73.5063 46.3431 71.7489 45.4895C77.272 27.0628 77.3724 27.9665 76.5188 26.9623C75.6653 25.908 77.4728 26.2092 45.0377 26.2092C44.4351 26.159 43.8326 26.4603 43.4812 26.9121C43.1297 27.364 42.9791 28.0167 43.1799 28.6192L48.2008 45.5397C46.4435 46.3933 45.2385 48.0502 45.0377 50.0084C44.8368 51.9665 45.6402 53.8745 47.1464 55.0795L22.5439 78.3264C17.7741 82.8452 15.0628 89.1213 15.0628 95.6485H3.76569V18.728H116.285V95.5983H104.987V95.6485Z" fill="#1C293B"/>
<path d="M11.2468 7.48117C10.1924 7.48117 9.3891 8.33473 9.3891 9.33891C9.3891 10.3431 10.2427 11.1967 11.2468 11.1967C12.251 11.1967 13.1046 10.3431 13.1046 9.33891C13.1046 8.33473 12.3012 7.48117 11.2468 7.48117Z" fill="#1C293B"/>
<path d="M20.636 7.48117C19.5816 7.48117 18.7783 8.33473 18.7783 9.33891C18.7783 10.3431 19.6318 11.1967 20.636 11.1967C21.6402 11.1967 22.4937 10.3431 22.4937 9.33891C22.4937 8.33473 21.6402 7.48117 20.636 7.48117Z" fill="#1C293B"/>
<path d="M30.0251 7.48117C28.9707 7.48117 28.1674 8.33473 28.1674 9.33891C28.1674 10.3431 29.0209 11.1967 30.0251 11.1967C31.0293 11.1967 31.8828 10.3431 31.8828 9.33891C31.8828 8.33473 31.0293 7.48117 30.0251 7.48117Z" fill="#1C293B"/>
<path d="M59.046 84.3515H63.7155C64.7699 84.3515 65.5732 83.4979 65.5732 82.4937C65.5732 81.4895 64.7197 80.636 63.7155 80.636H61.8577V78.7782C61.8577 77.7238 61.0042 76.9205 60 76.9205C58.9958 76.9205 58.1423 77.7741 58.1423 78.7782V80.636C55.5314 80.887 53.6736 83.1967 53.9247 85.8075C54.1757 88.4184 56.4854 90.2762 59.0962 90.0251H60.954C61.4561 90.0251 61.9079 90.4268 61.9079 90.9791C61.9079 91.5314 61.5063 91.9331 60.954 91.9331H56.2343C55.1799 91.9331 54.3766 92.7866 54.3766 93.7908C54.3766 94.795 55.2301 95.6485 56.2343 95.6485H58.092V97.5063C58.092 98.5607 58.9456 99.364 59.9498 99.364C60.954 99.364 61.8075 98.5105 61.8075 97.5063V95.6485C64.4184 95.3975 66.2761 93.0879 66.0251 90.477C65.774 87.8661 63.4644 86.0084 60.8535 86.2594H58.9958C58.4937 86.2594 58.0418 85.8577 58.0418 85.3054C58.0418 84.7531 58.5439 84.3515 59.046 84.3515Z" fill="#1C293B"/>
<path d="M81.5397 81.5397C81.841 80.5355 81.6903 80.6862 77.6234 73.6067C77.3723 73.1548 76.9707 72.8535 76.4686 72.7029C75.9665 72.5523 75.4644 72.6527 75.0125 72.9037L72.6025 74.3096C70.5941 72.4519 68.2343 71.046 65.6234 70.2427V67.4812C65.6234 66.4268 64.7698 65.6234 63.7657 65.6234H56.2343C55.1799 65.6234 54.3765 66.477 54.3765 67.4812V70.2427C51.7657 71.046 49.3556 72.4519 47.3472 74.3096L44.9874 72.9037C44.0836 72.4017 42.9288 72.7029 42.4267 73.6067C37.4058 82.3431 37.0041 81.2887 41.7238 84.0502C41.1213 86.7113 41.1213 89.523 41.7238 92.1841C37.0544 94.8954 37.3556 93.8912 42.4267 102.628C42.9288 103.531 44.0836 103.833 44.9874 103.331L47.3975 101.925C49.4058 103.782 51.7657 105.188 54.3765 105.992V108.753C54.3765 109.808 55.2301 110.611 56.2343 110.611H63.7657C64.82 110.611 65.6234 109.757 65.6234 108.753V105.992C68.2343 105.188 70.6443 103.782 72.6527 101.925C77.3221 104.636 76.4184 104.887 81.3389 96.1506C81.5899 95.6987 81.6401 95.1966 81.4895 94.6945C81.3389 94.1925 81.0376 93.7908 80.5857 93.5397C76.9707 91.4309 78.728 93.3891 78.728 88.1171C78.728 82.8452 77.0209 84.8033 80.5857 82.6945C81.0878 82.4435 81.3891 82.0418 81.5397 81.5397ZM74.3598 83.6987C75.2636 86.5607 75.2636 89.6736 74.3598 92.5356C73.8075 94.2427 75.364 94.795 77.1715 95.8494L75.3138 99.113L73.3054 97.9581C70.7447 96.4519 70.5439 101.071 63.364 102.728C62.5104 102.929 61.8577 103.732 61.9079 104.586V106.845H58.1422V104.536C58.1422 101.573 54.0753 103.682 49.0544 98.2594C47.7991 96.9037 46.4937 98.0586 44.7364 99.0627L42.8786 95.7991L44.887 94.6443C46.7447 93.5397 45.0878 92.1841 45.0878 88.0669C45.0878 83.9498 46.8452 82.5941 44.887 81.4895L42.8786 80.3347L44.7364 77.0711C46.5941 78.1255 47.8493 79.2301 49.0544 77.8745C54.0251 72.5523 58.1422 74.5104 58.1422 71.5983V69.2887H61.9079C61.9079 71.3975 61.6067 73.0544 63.364 73.4561C70.4435 75.0627 70.7949 79.682 73.3054 78.2259L75.3138 77.0711L77.1715 80.3347C75.364 81.3891 73.8075 81.9916 74.3598 83.6987Z" fill="#1C293B"/>
</svg>
