<svg width="121" height="120" viewBox="0 0 121 120" fill="none" xmlns="http://www.w3.org/2000/svg">
<g clip-path="url(#clip0)">
<path d="M60.7775 13.0507C58.8904 11.1152 56.0041 10.5622 53.5619 11.5576C51.0642 12.553 49.3991 14.9309 49.3991 17.6405C49.3991 24.2212 60.7775 29.8617 60.7775 29.8617C60.7775 29.8617 72.156 24.2212 72.156 17.6405C72.156 14.9862 70.4908 12.553 67.9931 11.5576C65.5509 10.5622 62.6647 11.1152 60.7775 13.0507Z" fill="#DEF2F9"/>
<path d="M118.114 107.945C116.56 101.088 111.564 95.5023 104.959 93.1244C109.677 89.3641 109.178 84.7189 109.178 80.6267C109.178 74.4332 104.127 69.4009 97.9101 69.4009C91.6936 69.4009 86.6427 74.4332 86.6427 80.6267C86.6427 84.8295 86.1431 89.3088 90.861 93.0691C86.6982 94.5622 83.1459 97.3272 80.7037 100.977C78.1505 95.5576 73.4881 91.4101 67.8266 89.4194C73.8766 85.1613 73.4881 79.4101 73.4881 74.9862C73.4881 67.7419 67.6046 61.8802 60.3335 61.8802C53.0624 61.8802 47.1789 67.7419 47.1789 74.9862C47.1789 79.1336 46.5129 84.9954 52.8404 89.4194C47.1789 91.4654 42.572 95.6129 40.0743 100.977C37.6321 97.3272 34.0798 94.5622 29.917 93.0691C34.6349 89.3088 34.1353 84.6636 34.1353 80.5714C34.1353 74.3226 29.0844 69.2903 22.8124 69.2903C16.5404 69.2903 11.4895 74.3226 11.4895 80.5714C11.4895 84.8295 10.9899 89.2535 15.6523 93.0138C8.88075 95.5023 3.88534 101.088 2.33121 107.945L0.0555226 117.677C-0.166496 118.728 0.499559 119.723 1.49864 119.945C2.55323 120.166 3.55231 119.502 3.77433 118.507L5.99451 108.719C7.65965 101.585 13.7652 96.3318 21.0363 95.7235C28.3629 95.0599 35.2454 99.1521 38.1872 105.843C38.0762 106.396 38.5757 103.742 35.8005 117.733C35.5785 118.783 36.2445 119.779 37.2991 120C38.3537 120.221 39.3528 119.558 39.5748 118.507L41.8505 106.894C43.6821 98.2673 51.3418 92.0737 60.2225 92.0737C69.1032 92.0737 76.7629 98.2673 78.5945 106.894L80.8702 118.507C81.0922 119.558 82.0913 120.221 83.1459 120C84.2005 119.779 84.8665 118.783 84.6445 117.733C81.7583 103.521 82.3688 106.396 82.2578 105.899C88.8074 90.7465 110.843 93.0691 114.45 108.774L116.726 118.507C117.004 119.502 117.947 120.111 118.946 119.889C119.945 119.668 120.556 118.728 120.389 117.733L118.114 107.945ZM15.0973 84.3871V80.6267C15.0973 76.4793 18.483 73.1613 22.6459 73.1613C26.8087 73.1613 30.1945 76.5346 30.1945 80.6267V84.3871C30.1945 88.5346 26.8087 91.8525 22.6459 91.8525C18.483 91.8525 15.0973 88.5346 15.0973 84.3871ZM50.8422 78.8018V75.0415C50.8422 69.8986 55.0606 65.6959 60.2225 65.6959C65.3844 65.6959 69.6028 69.8986 69.6028 75.0415V78.8018C69.6028 83.9447 65.3844 88.1475 60.2225 88.1475C55.0606 88.1475 50.8422 83.9447 50.8422 78.8018ZM90.306 84.3871V80.6267C90.306 76.4793 93.6918 73.1613 97.8546 73.1613C102.017 73.1613 105.403 76.5346 105.403 80.6267V84.3871C105.403 88.5346 102.017 91.8525 97.8546 91.8525C93.6918 91.8525 90.306 88.5346 90.306 84.3871Z" fill="#1C293B"/>
<path d="M113.451 0H8.10369C3.94085 0 0.555069 3.37327 0.555069 7.46544V33.6221C0.555069 37.7696 3.94085 41.0876 8.10369 41.0876H52.1743L59.1679 53.2535C59.5009 53.8618 60.1115 54.1935 60.7775 54.1935C61.4436 54.1935 62.0541 53.8065 62.3872 53.2535L69.3808 41.0876H113.451C117.614 41.0876 121 37.7143 121 33.6221V7.46544C121 3.37327 117.614 0 113.451 0ZM117.226 33.6221C117.226 35.6682 115.561 37.3825 113.451 37.3825H68.2707C66.8275 37.3825 67.1051 37.5484 60.722 48.6083C54.45 37.5484 54.7275 37.3825 53.2289 37.3825H8.10369C6.05002 37.3825 4.32938 35.7235 4.32938 33.6221V7.46544C4.32938 5.41935 5.99452 3.70507 8.10369 3.70507H113.507C115.561 3.70507 117.281 5.36406 117.281 7.46544V33.6221H117.226Z" fill="#1C293B"/>
<path d="M60.7775 10.341C51.3418 3.92627 37.2991 19.9078 59.945 31.2995C60.5 31.576 61.1106 31.576 61.6101 31.2995C84.145 19.9631 70.3798 3.81567 60.7775 10.341ZM60.7775 27.5392C43.4601 17.8618 54.7275 9.23503 59.4454 14.1014C59.7785 14.4332 60.278 14.6544 60.7775 14.6544C61.2771 14.6544 61.7766 14.4332 62.1096 14.1014C66.883 9.23503 78.095 17.8065 60.7775 27.5392Z" fill="#1C293B"/>
<path d="M32.7477 16.0922L26.8087 15.2627L24.2 9.89862C23.867 9.23503 23.2009 8.84793 22.4794 8.84793C21.7578 8.84793 21.0918 9.23503 20.7587 9.89862L18.15 15.2627C12.7661 15.9816 11.212 15.7604 10.6569 17.3641C10.1019 18.9677 11.1009 19.2442 15.4858 23.3917C14.4867 28.8664 13.8762 30.1383 15.2083 31.0783C16.5404 32.0184 17.0954 31.2442 22.5349 28.424C28.0854 31.4654 28.0298 31.4654 28.6959 31.4654C29.2509 31.4654 29.806 31.2442 30.1945 30.8019C30.5276 30.4148 30.6386 29.8618 30.5831 29.3088L29.5285 23.447L33.8578 19.3548C34.3574 18.8571 34.5794 18.083 34.3574 17.4194C34.0798 16.6452 33.4693 16.1475 32.7477 16.0922ZM26.0872 26.1014C21.9243 23.8894 23.0899 23.8894 18.8716 26.1014C19.7042 21.4562 20.0372 22.5069 16.6514 19.2995C21.3693 18.636 20.4812 19.2995 22.4794 15.0968C24.5331 19.2995 23.645 18.636 28.3074 19.2995C24.9216 22.5622 25.2546 21.5115 26.0872 26.1014Z" fill="#1C293B"/>
<path d="M103.849 16.424H102.461L102.85 14.8756C103.183 13.4378 102.85 11.8894 101.962 10.7281C101.074 9.56682 99.6307 8.84793 98.1321 8.84793C96.578 8.84793 96.578 9.62212 93.2477 16.2581C92.9147 16.9217 92.7482 17.5853 92.5817 18.3042H86.7537C85.6991 18.3042 84.8665 19.1336 84.8665 20.1843V29.6406C84.8665 30.6912 85.6991 31.5207 86.7537 31.5207H101.351C103.738 31.5207 105.903 30.0277 106.735 27.7604C107.512 25.3272 107.79 22.7281 107.568 20.1843C107.568 19.1889 107.179 18.1936 106.458 17.53C105.792 16.8111 104.848 16.424 103.849 16.424ZM88.6963 22.0645H92.4707V27.7051H88.6963V22.0645ZM101.407 27.7604H96.245C96.245 16.977 95.5789 20.0737 99.0202 13.1613C99.7418 14.3779 97.244 17.8618 98.5207 19.4654C99.2422 20.4055 99.9083 20.1843 103.794 20.1843C103.849 22.894 104.127 27.7604 101.407 27.7604Z" fill="#1C293B"/>
</g>
<defs>
<clipPath id="clip0">
<rect width="121" height="120" fill="white"/>
</clipPath>
</defs>
</svg>
