<svg width="120" height="120" viewBox="0 0 120 120" fill="none" xmlns="http://www.w3.org/2000/svg">
<path d="M60.251 13.0544C63.3013 13.0544 65.7741 10.5817 65.7741 7.53137C65.7741 4.4811 63.3013 2.00836 60.251 2.00836C57.2008 2.00836 54.728 4.4811 54.728 7.53137C54.728 10.5817 57.2008 13.0544 60.251 13.0544Z" fill="#DEF2F9"/>
<path d="M60.251 117.992C63.3013 117.992 65.7741 115.519 65.7741 112.469C65.7741 109.418 63.3013 106.946 60.251 106.946C57.2008 106.946 54.728 109.418 54.728 112.469C54.728 115.519 57.2008 117.992 60.251 117.992Z" fill="#DEF2F9"/>
<path d="M96.9038 28.6192C99.954 28.6192 102.427 26.1465 102.427 23.0962C102.427 20.0459 99.954 17.5732 96.9038 17.5732C93.8535 17.5732 91.3808 20.0459 91.3808 23.0962C91.3808 26.1465 93.8535 28.6192 96.9038 28.6192Z" fill="#DEF2F9"/>
<path d="M23.0962 102.427C26.1465 102.427 28.6193 99.954 28.6193 96.9038C28.6193 93.8535 26.1465 91.3807 23.0962 91.3807C20.046 91.3807 17.5732 93.8535 17.5732 96.9038C17.5732 99.954 20.046 102.427 23.0962 102.427Z" fill="#DEF2F9"/>
<path d="M96.9038 102.427C99.954 102.427 102.427 99.954 102.427 96.9038C102.427 93.8535 99.954 91.3807 96.9038 91.3807C93.8535 91.3807 91.3808 93.8535 91.3808 96.9038C91.3808 99.954 93.8535 102.427 96.9038 102.427Z" fill="#DEF2F9"/>
<path d="M23.0962 28.6192C26.1465 28.6192 28.6193 26.1465 28.6193 23.0962C28.6193 20.0459 26.1465 17.5732 23.0962 17.5732C20.046 17.5732 17.5732 20.0459 17.5732 23.0962C17.5732 26.1465 20.046 28.6192 23.0962 28.6192Z" fill="#DEF2F9"/>
<path d="M112.469 65.272C115.519 65.272 117.992 62.7992 117.992 59.749C117.992 56.6987 115.519 54.226 112.469 54.226C109.418 54.226 106.946 56.6987 106.946 59.749C106.946 62.7992 109.418 65.272 112.469 65.272Z" fill="#DEF2F9"/>
<path d="M7.53137 65.272C10.5817 65.272 13.0544 62.7992 13.0544 59.749C13.0544 56.6987 10.5817 54.226 7.53137 54.226C4.4811 54.226 2.00836 56.6987 2.00836 59.749C2.00836 62.7992 4.4811 65.272 7.53137 65.272Z" fill="#DEF2F9"/>
<path d="M34.1925 53.7238C35.1464 54.4268 34.3933 53.3724 34.1925 58.2427C34.0921 56.7364 34.0921 55.2301 34.1925 53.7238Z" fill="white"/>
<path d="M60 78.8284C70.3987 78.8284 78.8284 70.3987 78.8284 60C78.8284 49.6013 70.3987 41.1715 60 41.1715C49.6013 41.1715 41.1715 49.6013 41.1715 60C41.1715 70.3987 49.6013 78.8284 60 78.8284Z" fill="#DEF2F9"/>
<path d="M60 78.8284C70.3987 78.8284 78.8284 70.3987 78.8284 60C78.8284 49.6013 70.3987 41.1715 60 41.1715C49.6013 41.1715 41.1715 49.6013 41.1715 60C41.1715 70.3987 49.6013 78.8284 60 78.8284Z" fill="#DEF2F9"/>
<path d="M59.7489 39.1632C48.4017 39.1632 39.1632 48.4017 39.1632 59.7489C39.1632 71.0962 48.4017 80.3347 59.7489 80.3347C71.0962 80.3347 80.3347 71.0962 80.3347 59.7489C80.3347 54.2761 78.1757 49.0544 74.3096 45.1883C70.4435 41.3222 65.2218 39.1632 59.7489 39.1632ZM59.7489 76.569C50.4602 76.569 42.9289 69.0377 42.9289 59.7489C42.9289 50.4602 50.4602 42.9289 59.7489 42.9289C69.0377 42.9289 76.569 50.4602 76.569 59.7489C76.569 64.2176 74.8117 68.4853 71.6485 71.6485C68.4853 74.8117 64.2176 76.569 59.7489 76.569Z" fill="#1C293B"/>
<path d="M57.841 54.1757H65.3724C66.4268 54.1757 67.2803 53.3222 67.2803 52.318C67.2803 51.2636 66.4268 50.4602 65.3724 50.4602H61.6067V48.6025C61.6067 47.5481 60.7531 46.7448 59.6987 46.7448C58.6444 46.7448 57.7908 47.5983 57.7908 48.6025V50.4602C54.6778 50.4602 52.1674 52.9707 52.1674 56.0335C52.1674 59.0962 54.6778 61.6067 57.7908 61.6067H61.5565C62.6109 61.6067 63.4644 62.4602 63.4644 63.4644C63.4644 64.4686 62.6109 65.3222 61.5565 65.3222H54.0251C52.9707 65.3222 52.1172 66.1757 52.1172 67.1799C52.1172 68.1841 52.9707 69.0376 54.0251 69.0376H57.7908V70.8954C57.7908 71.9498 58.6444 72.7531 59.6987 72.7531C60.7531 72.7531 61.6067 71.8996 61.6067 70.8954V69.0376C64.7197 69.0376 67.2301 66.5272 67.2301 63.4644C67.2301 60.3514 64.7197 57.8912 61.6067 57.8912H57.841C56.7866 57.8912 55.9331 57.0376 55.9331 56.0335C55.9833 54.9791 56.8368 54.1757 57.841 54.1757Z" fill="#1C293B"/>
<path d="M105.188 58.1423H88.0669C88.0167 57.0377 87.8661 55.9833 87.6653 54.8787L90.6778 53.1213C91.4812 52.569 91.7322 51.4644 91.2803 50.6109L84.3013 38.3096L93.3389 29.272C96.7029 31.2803 101.071 30.3264 103.331 27.113C105.59 23.8996 104.937 19.4812 101.874 17.0209C98.8117 14.5607 94.3933 14.8619 91.682 17.7239C89.3724 20.1339 88.9707 23.7992 90.6778 26.6109C77.6736 39.6653 79.7824 37.7573 78.2761 38.6611C75.6151 36.4017 72.6025 34.6444 69.3389 33.4895V30.0251C69.3389 28.9707 68.4854 28.1674 67.4812 28.1674H61.8577V14.7615C70.4937 12.5021 68.5356 0 59.9498 0C51.364 0 49.5063 12.5021 58.092 14.7615V28.1172H52.4686C51.4142 28.1172 50.6109 28.9707 50.6109 29.9749V33.4393C47.3473 34.6444 44.3347 36.4017 41.7239 38.6611C40.2176 37.7573 42.2259 39.6151 29.3222 26.6611C33.7406 19.1799 23.6987 11.3975 17.5732 17.5732C11.4477 23.749 19.0293 33.841 26.6611 29.3222L35.5983 38.3598C28.1172 51.364 28.1172 50.9121 28.3682 51.9665C28.6192 53.0209 29.1716 53.0711 32.2845 54.8787C32.1339 55.9833 32.0335 57.0377 31.9833 58.1423H14.7113C13.7071 54.5272 10.2427 52.2176 6.5272 52.6695C2.81172 53.1213 0 56.2845 0 60C0 68.636 12.5021 70.4937 14.7113 61.8577H31.9331C31.9833 62.9623 32.1339 64.0167 32.3347 65.1213L29.3222 66.8787C28.4686 67.3808 28.1674 68.4854 28.6695 69.3891L35.6485 81.6904L26.6109 90.728C24.3013 89.3724 21.4393 89.3724 19.1297 90.728C16.8201 92.0335 15.364 94.4937 15.364 97.205C15.364 103.28 22.5439 107.598 28.3682 102.276C30.5774 99.8661 30.9791 96.251 29.3222 93.3891C42.2762 80.3347 40.1674 82.2427 41.6736 81.3389C44.2845 83.5983 47.3473 85.3557 50.6109 86.5105V89.9749C50.6109 91.0293 51.4644 91.8326 52.4686 91.8326H58.092V105.239C49.6569 107.448 51.2134 120 59.9498 120C68.6862 120 70.4435 107.498 61.8075 105.239V91.8829H67.431C68.4854 91.8829 69.2887 91.0293 69.2887 90.0251V86.5607C72.5523 85.4059 75.5649 83.6485 78.1757 81.3891C79.682 82.2929 77.6736 80.4352 90.5774 93.3891C88.9205 96.251 89.3222 99.8661 91.5816 102.276C94.2427 105.188 98.7113 105.49 101.774 103.029C104.837 100.569 105.49 96.1506 103.23 92.9372C100.971 89.7239 96.6527 88.7197 93.2385 90.728L84.2511 81.6904C91.7322 68.6862 91.7322 69.1381 91.4812 68.0837C91.2301 67.0293 90.6778 66.9791 87.5648 65.1716C87.7657 64.1172 87.9163 63.0126 87.9665 61.908H105.188C107.448 70.5941 119.9 68.5858 119.9 60.0502C120.05 56.1339 117.238 52.7699 113.372 52.2678C109.506 51.7657 105.992 54.3264 105.188 58.1423ZM56.1841 7.48117C56.1841 5.42259 57.841 3.71548 59.9498 3.71548C62.0084 3.71548 63.7155 5.37239 63.7155 7.48117C63.7155 9.58996 62.0586 11.2469 59.9498 11.2469C57.8912 11.2469 56.1841 9.58996 56.1841 7.48117ZM63.7155 112.519C63.7155 114.577 62.0586 116.285 59.9498 116.285C57.8912 116.285 56.1841 114.628 56.1841 112.519C56.1841 110.41 57.841 108.753 59.9498 108.753C62.0084 108.753 63.7155 110.41 63.7155 112.519ZM99.6653 20.2343C100.87 21.4393 101.121 23.2971 100.268 24.7531C99.4142 26.2092 97.7071 26.9623 96.0502 26.5105C94.3933 26.0586 93.2887 24.5523 93.2887 22.8954C93.2887 21.3891 94.1925 20.0335 95.5983 19.431C97.0042 18.8285 98.6109 19.1799 99.6653 20.2343ZM20.2343 25.5565C18.7782 24.1004 18.7782 21.7406 20.2343 20.2343C21.6904 18.7782 24.0502 18.7782 25.5565 20.2343C27.0126 21.6904 27.0126 24.0502 25.5565 25.5565C24.0502 26.9623 21.6904 26.9623 20.2343 25.5565ZM7.48117 63.7657C5.42259 63.7657 3.71548 62.1088 3.71548 60C3.71548 57.8912 5.37239 56.2343 7.48117 56.2343C9.58996 56.2343 11.2469 57.8912 11.2469 60C11.2469 62.1088 9.53975 63.7657 7.48117 63.7657ZM20.2343 99.7657C18.7782 98.3096 18.7782 95.9498 20.2343 94.4435C21.6904 92.9874 24.0502 92.9874 25.5565 94.4435C27.0126 95.8996 27.0126 98.2594 25.5565 99.7657C24.8536 100.469 23.8996 100.87 22.8954 100.87C21.8912 100.87 20.9372 100.469 20.2343 99.7657ZM99.6653 94.4435C100.87 95.6485 101.121 97.5063 100.268 98.9623C99.4142 100.418 97.7071 101.172 96.0502 100.72C94.3933 100.268 93.2887 98.8117 93.2887 97.1046C93.2887 95.5983 94.1925 94.2427 95.5983 93.6402C97.0042 93.0377 98.6109 93.3891 99.6653 94.4435ZM81.4895 78.9289L78.9289 77.4226C78.2259 77.0209 77.3222 77.1213 76.7197 77.6736C69.9414 84.1004 65.6234 82.1925 65.6234 85.1548V88.0669H54.3766C54.3766 85.2552 54.6778 83.7992 53.0711 83.2971C44.1339 80.636 43.682 75.9163 41.0711 77.3724L38.5105 78.8787L32.887 69.1381C35.4477 67.6318 36.7531 67.2803 36.3515 65.5732C35.4477 61.8577 35.4477 58.0418 36.3515 54.3264C36.7531 52.7197 35.4477 52.2678 32.887 50.7615L38.5105 41.0209L41.0711 42.5272C43.6318 43.9833 44.1841 39.2636 53.0711 36.6025C54.6778 36.1004 54.3766 34.7448 54.3766 31.8326H65.6234V34.795C65.6234 37.7071 69.8912 35.7992 76.7197 42.2761C77.9247 43.431 78.9289 42.5272 81.5397 41.0209L87.1632 50.7615C81.5398 54.0251 84.3515 52.0167 84.3515 59.9498C84.3515 67.8829 81.4895 65.8745 87.1632 69.1381L81.4895 78.9289ZM112.418 63.7657C110.36 63.7657 108.653 62.1088 108.653 60C108.653 57.8912 110.31 56.2343 112.418 56.2343C114.477 56.2343 116.184 57.8912 116.184 60C116.184 62.1088 114.477 63.7657 112.418 63.7657Z" fill="#1C293B"/>
<path d="M11.046 47.3975C11.1966 46.3933 10.5439 45.4895 9.53974 45.2385C8.53556 44.9874 7.43096 45.5397 7.07949 46.4435C6.92886 47.4477 7.58158 48.3515 8.58577 48.6025C9.58995 48.9038 10.6443 48.3515 11.046 47.3975Z" fill="#1C293B"/>
<path d="M16.4184 34.3431C16.8201 33.4393 16.4686 32.3849 15.6653 31.8828C14.8619 31.3807 13.8075 31.6318 13.2552 32.4351C12.8536 33.3389 13.205 34.3933 14.0084 34.8954C14.8117 35.3975 15.8661 35.1464 16.4184 34.3431Z" fill="#1C293B"/>
<path d="M13.4059 40.9205C13.6569 40.2678 13.6067 39.5146 13.1548 38.9121C12.7029 38.3598 12 38.0586 11.2971 38.159C10.5941 38.2594 9.99163 38.7113 9.69037 39.364C9.2887 40.3682 9.74058 41.5732 10.795 41.9749C11.7992 42.4268 12.954 41.9749 13.4059 40.9205Z" fill="#1C293B"/>
<path d="M74.8117 9.48954C74.8619 8.58577 74.2594 7.78242 73.4059 7.58159C72.5523 7.38075 71.6987 7.78242 71.2971 8.53556C71.2469 9.43933 71.8494 10.2427 72.7029 10.4435C73.5565 10.6946 74.41 10.2929 74.8117 9.48954Z" fill="#1C293B"/>
<path d="M81.6904 12.3013C82.092 11.2971 81.6402 10.0921 80.5858 9.69039C79.5816 9.28871 78.3766 9.7406 77.9749 10.795C77.5732 11.8494 78.0251 13.0042 79.0795 13.4059C80.0837 13.8075 81.2385 13.3557 81.6904 12.3013Z" fill="#1C293B"/>
<path d="M88.2176 15.7657C88.6192 14.8619 88.2678 13.8075 87.4644 13.3054C86.6611 12.8034 85.6067 13.0544 85.0544 13.8577C84.6527 14.7615 85.0042 15.8159 85.8075 16.318C86.6109 16.8201 87.6653 16.569 88.2176 15.7657Z" fill="#1C293B"/>
<path d="M111.464 70.8452C110.41 70.5942 109.305 71.2469 109.004 72.3013C108.753 73.3557 109.406 74.4603 110.46 74.7615C111.515 75.0126 112.619 74.3599 112.921 73.3055C113.172 72.2009 112.519 71.1465 111.464 70.8452Z" fill="#1C293B"/>
<path d="M106.142 85.0042C105.238 84.6025 104.184 84.954 103.682 85.7573C103.18 86.5607 103.431 87.6151 104.234 88.1674C105.138 88.569 106.192 88.2176 106.695 87.4142C107.197 86.6109 106.946 85.5565 106.142 85.0042Z" fill="#1C293B"/>
<path d="M109.205 77.9749C108.201 77.5732 106.996 78.0251 106.594 79.0795C106.192 80.0837 106.644 81.2887 107.699 81.6904C108.703 82.0921 109.908 81.6402 110.31 80.5858C110.711 79.5816 110.259 78.3766 109.205 77.9749Z" fill="#1C293B"/>
<path d="M34.3431 103.582C33.4393 103.18 32.3849 103.531 31.8828 104.335C31.3807 105.138 31.6318 106.192 32.4351 106.745C33.3389 107.146 34.3933 106.795 34.8954 105.992C35.3975 105.188 35.1464 104.134 34.3431 103.582Z" fill="#1C293B"/>
<path d="M37.8075 107.699C37.4059 108.703 37.8577 109.908 38.9121 110.31C39.9163 110.711 41.1213 110.259 41.523 109.205C41.7741 108.552 41.6736 107.799 41.272 107.197C40.8703 106.594 40.1172 106.343 39.4142 106.444C38.7113 106.544 38.0586 107.046 37.8075 107.699Z" fill="#1C293B"/>
<path d="M47.6987 109.004C46.9958 108.854 46.2427 109.054 45.7908 109.556C45.2887 110.059 45.0879 110.812 45.2887 111.515C45.4895 112.218 46.0418 112.72 46.7448 112.92C47.7992 113.172 48.9038 112.519 49.205 111.464C49.4059 110.36 48.7531 109.305 47.6987 109.004Z" fill="#1C293B"/>
<path d="M13.4059 79.0795C13.0042 78.0753 11.7992 77.5732 10.795 77.9749C9.79079 78.3766 9.2887 79.5816 9.69037 80.5858C10.092 81.59 11.2971 82.092 12.3013 81.6904C13.3054 81.2887 13.8075 80.0837 13.4059 79.0795Z" fill="#1C293B"/>
<path d="M10.9958 72.2511C10.6946 71.1967 9.58996 70.5942 8.53557 70.8954C7.48118 71.1967 6.82846 72.2511 7.0795 73.3557C7.33055 74.4603 8.43515 75.0628 9.53975 74.8117C10.6444 74.5607 11.2469 73.4561 10.9958 72.3515V72.2511Z" fill="#1C293B"/>
<path d="M16.4184 85.6569C15.8661 84.8536 14.8117 84.6527 14.0084 85.1046C13.205 85.5565 12.8536 86.6611 13.2552 87.5649C13.8075 88.3682 14.8619 88.569 15.6653 88.1172C16.4686 87.6151 16.8201 86.5607 16.4184 85.6569Z" fill="#1C293B"/>
<path d="M85.3054 103.732C84.3515 104.284 84.0502 105.54 84.6025 106.494C85.1548 107.448 86.41 107.749 87.364 107.197C88.318 106.644 88.6192 105.389 88.0669 104.435C87.8159 103.983 87.364 103.632 86.8117 103.481C86.3096 103.381 85.7573 103.431 85.3054 103.732Z" fill="#1C293B"/>
<path d="M79.0795 107.096C78.0753 107.548 77.5732 108.703 78.0251 109.707C78.4268 110.711 79.6318 111.213 80.636 110.812C81.6402 110.41 82.1423 109.205 81.7406 108.201C81.5398 107.699 81.1381 107.297 80.636 107.096C80.0837 106.895 79.5314 106.895 79.0795 107.096Z" fill="#1C293B"/>
<path d="M72.3013 109.004C71.4979 109.205 70.8954 109.858 70.795 110.661C70.6946 111.464 71.046 112.268 71.749 112.669C72.4519 113.071 73.3054 113.021 73.9582 112.569C74.6109 112.117 74.9121 111.264 74.7113 110.46C74.4603 109.406 73.4059 108.753 72.3013 109.004Z" fill="#1C293B"/>
<path d="M106.142 34.9958C106.946 34.4435 107.146 33.3891 106.695 32.5858C106.192 31.7824 105.138 31.431 104.234 31.8326C103.431 32.3849 103.23 33.4393 103.682 34.2427C104.134 35.046 105.238 35.3975 106.142 34.9958Z" fill="#1C293B"/>
<path d="M106.594 40.9205C106.895 41.6736 107.649 42.1757 108.452 42.1757C109.356 42.1757 110.109 41.6234 110.36 40.7699C110.611 39.9163 110.31 39.0126 109.556 38.5105C108.803 38.0084 107.849 38.0586 107.146 38.6109C106.494 39.1632 106.243 40.1172 106.594 40.9205Z" fill="#1C293B"/>
<path d="M111.464 49.1548C112.519 48.9037 113.172 47.7991 112.921 46.6945C112.669 45.6402 111.565 44.9874 110.46 45.2385C109.406 45.4895 108.753 46.5941 109.004 47.6987C109.305 48.7531 110.36 49.4058 111.464 49.1548Z" fill="#1C293B"/>
<path d="M34.9958 13.8577C34.4435 13.0544 33.3891 12.8535 32.5858 13.3054C31.7824 13.8075 31.431 14.8619 31.8326 15.7657C32.3849 16.569 33.4393 16.7699 34.2427 16.318C35.046 15.8159 35.3975 14.7615 34.9958 13.8577Z" fill="#1C293B"/>
<path d="M39.6653 13.5565C40.318 13.5565 40.9707 13.205 41.3222 12.6527C41.6736 12.1004 41.7741 11.3975 41.4728 10.7448C41.0711 9.74058 39.9163 9.23848 38.8619 9.64016C37.9582 9.99162 37.4561 10.9456 37.6569 11.8996C37.8577 12.9038 38.7113 13.5565 39.6653 13.5565Z" fill="#1C293B"/>
<path d="M49.1548 8.53555C48.9038 7.48116 47.7992 6.82844 46.6946 7.07949C45.6402 7.33053 44.9874 8.43514 45.2385 9.53974C45.4895 10.5941 46.5941 11.2469 47.6987 10.9958C48.7531 10.6945 49.4058 9.64016 49.1548 8.53555Z" fill="#1C293B"/>
</svg>
