<svg width="373" height="367" viewBox="0 0 373 367" fill="none" xmlns="http://www.w3.org/2000/svg">
<g clip-path="url(#clip0)">
<path d="M98.7022 225.458C117.509 222.339 135.919 217.448 154.236 212.201C163.044 209.677 171.853 207.271 180.753 205.051C189.112 202.962 197.471 200.781 205.538 197.755C206.517 197.371 207.496 196.962 208.474 196.552C203.911 179.925 205.049 158.103 176.627 160.35C147.716 162.65 129.584 180.216 116.292 139.269C103 98.3222 42.1498 38.4486 11.2549 83.1622C-6.46733 108.83 31.7016 132.845 29.3342 162.835C27.0859 191.331 45.0329 206.822 76.0204 210.919C91.2298 212.928 96.7845 217.898 98.7022 225.458Z" fill="#DEF2F9"/>
<path d="M106.823 188.82C119.149 198.667 132.189 207.271 145.785 214.58C145.997 214.527 146.208 214.461 146.42 214.408C90.5685 184.617 45.1255 133.401 17.6164 66.5483L17.008 66.7994C37.1902 115.835 68.2437 158.024 106.823 188.82Z" fill="white"/>
<path d="M192.815 201.865C188.133 188.873 185.078 173.29 183.716 155.473L183.068 155.526C184.417 173.382 187.485 189.005 192.18 202.05C192.392 201.984 192.604 201.931 192.815 201.865Z" fill="#FCFDFE"/>
<path d="M101.506 184.247L101.757 183.639C75.6633 172.523 46.4481 178.497 26.5304 185.476L26.742 186.097C46.5671 179.158 75.6104 173.21 101.506 184.247Z" fill="#FCFDFE"/>
<path d="M56.7904 137.22L57.3724 136.929C43.3269 108.248 49.847 75.3773 54.9785 58.3272L54.3569 58.1422C49.199 75.2715 42.6391 108.341 56.7904 137.22Z" fill="#FCFDFE"/>
<path d="M112.642 199.764C112.589 200.094 112.536 200.425 112.47 200.755C112.787 200.966 113.105 201.178 113.422 201.389C113.158 200.861 112.906 200.319 112.642 199.764Z" fill="#A33A3D"/>
<path d="M143.457 205.077C143.563 205.143 143.656 205.196 143.762 205.262C144.079 205.447 144.41 205.645 144.727 205.83C145.983 206.557 147.637 207.482 143.457 205.077Z" fill="#A33A3D"/>
<path d="M159.13 130.85C158.68 128.219 151.194 123.62 151.247 104.468C151.34 63.4422 118.329 -17.9224 71.484 13.8383C44.6097 32.0647 72.3701 71.465 61.8161 100.886C58.6685 109.689 58.0998 117.804 59.6604 125.206C63.1784 141.859 77.5942 149.182 95.528 163.324C129.994 190.525 130.959 210.628 141.54 208.54C156.67 205.592 164.949 164.487 159.13 130.85Z" fill="#DEF2F9"/>
<path d="M264.167 221.202C263.783 220.25 264.167 220.634 264.088 220.211C134.358 190.459 95.5016 129.29 81.3767 0.0264534C81.2709 0.251145 80.7022 -0.370061 80.9006 0.40975C85.4237 52.1813 99.0989 106.808 128.949 148.521C160.346 192.349 214.889 208.513 264.167 221.202Z" fill="white"/>
<path d="M107.114 228.59C131.475 215.809 182.274 203.121 209.506 202.301C209.519 202.077 209.532 201.839 209.546 201.614C182.314 202.434 131.158 215.228 106.783 228.009C106.889 228.207 106.995 228.392 107.114 228.59Z" fill="#FCFDFE"/>
<path d="M244.924 216.668C244.95 216.206 245.069 216.008 245.201 216.087C229.86 206.134 222.758 193.763 216.555 175.616C212.005 162.306 210.101 142.547 211.384 127.519C211.053 127.188 210.868 127.188 210.709 127.519C209.545 142.613 211.238 162.439 215.907 175.801C222.295 194.107 229.331 206.61 244.924 216.668Z" fill="#FCFDFE"/>
<path d="M125.391 143.274C125.524 143.102 125.643 142.917 125.775 142.732C105.196 125.906 79.3532 120.421 53.2592 121.479C53.2724 121.703 53.2989 121.941 53.3121 122.166C79.2474 121.109 104.945 126.554 125.391 143.274Z" fill="#FCFDFE"/>
<path d="M95.9116 81.5894C96.1232 81.563 96.348 81.5233 96.5596 81.4969C93.9013 53.9127 104.416 26.9498 120.194 4.71856C120.009 4.58639 119.837 4.45422 119.665 4.33527C103.781 26.6722 93.2003 53.8466 95.9116 81.5894Z" fill="white"/>
<path d="M301.635 62.3716L58.7479 55.4987C50.6009 55.274 43.9749 60.812 43.9749 67.8699V271.995C43.9749 279.066 50.6009 284.552 58.7479 284.248L301.648 275.3C308.671 275.035 314.345 269.537 314.345 263.021V74.5446C314.345 68.0285 308.671 62.5698 301.635 62.3716Z" fill="#212E44"/>
<path opacity="0.74" d="M58.7479 280.177C53.2064 280.375 48.7097 276.634 48.7097 271.837V67.9888C48.7097 63.191 53.2196 59.4109 58.7479 59.5695L301.648 66.1649C306.436 66.297 310.298 70.011 310.298 74.452V263.153C310.298 267.594 306.423 271.347 301.648 271.506L58.7479 280.177Z" fill="white"/>
<path d="M301.635 62.3716L58.7479 55.4987C50.6009 55.274 43.9749 60.812 43.9749 67.8699V77.0426L314.345 83.0167V74.5446C314.345 68.0285 308.671 62.5698 301.635 62.3716Z" fill="#212E44"/>
<path d="M70.0293 67.3148C70.0293 69.6146 68.0586 71.4254 65.6119 71.3593C63.1652 71.2932 61.1814 69.3767 61.1814 67.0769C61.1814 64.7771 63.1652 62.9664 65.6119 63.0325C68.0586 63.0985 70.0293 65.015 70.0293 67.3148Z" fill="white"/>
<path d="M85.437 67.7245C85.437 70.0111 83.4796 71.8086 81.0594 71.7425C78.6391 71.6765 76.6817 69.7732 76.6817 67.4866C76.6817 65.2001 78.6523 63.3893 81.0594 63.4686C83.4796 63.5347 85.437 65.4512 85.437 67.7245Z" fill="white"/>
<path d="M100.699 68.1475C100.699 70.4208 98.7684 72.2184 96.3745 72.1523C93.9807 72.0862 92.0366 70.1961 92.0366 67.9096C92.0366 65.623 93.9807 63.8387 96.3745 63.9048C98.7684 63.9709 100.699 65.8741 100.699 68.1475Z" fill="white"/>
<g opacity="0.5">
<path opacity="0.5" d="M207.218 140.855C178.849 105.248 129.743 116.575 98.689 77.2541C93.0814 70.1565 89.2857 62.9399 86.6802 56.2917L58.7479 55.4987C50.6009 55.274 43.9749 60.812 43.9749 67.8699V271.995C43.9749 279.066 50.6009 284.552 58.7479 284.248L292.747 275.63C287.391 268.969 240.692 244.266 228.63 206.359C217.6 171.69 224.345 162.32 207.218 140.855Z" fill="white"/>
</g>
<path d="M179.061 252.817C176.058 252.91 173.136 252.143 170.596 250.623C162.873 245.997 151.446 238.344 141.169 228.339C128.129 215.637 120.643 202.724 119.003 190.049L118.977 189.851L118.66 135.753C118.66 125.06 125.643 116.39 138.736 110.68C149.554 105.975 163.904 103.636 179.061 104.072C194.032 104.508 207.892 107.587 218.155 112.742C230.349 118.862 236.75 127.453 236.75 137.643L236.459 189.335L236.433 189.52C234.938 201.654 228.048 214.21 215.867 226.898C206.094 237.076 195.063 245.138 187.472 250.134C184.959 251.799 182.05 252.725 179.061 252.817Z" fill="#A33A3D"/>
<path d="M182.036 252.817C179.074 252.91 176.177 252.143 173.678 250.623C166.047 245.997 154.779 238.344 144.648 228.339C131.779 215.637 124.386 202.724 122.773 190.049L122.746 189.851L122.429 135.753C122.429 125.06 129.319 116.39 142.241 110.68C152.927 105.975 167.078 103.636 182.036 104.072C196.823 104.508 210.498 107.587 220.615 112.742C232.651 118.862 238.959 127.453 238.959 137.643L238.668 189.335L238.642 189.52C237.16 201.654 230.363 214.21 218.341 226.898C208.699 237.076 197.801 245.138 190.329 250.134C187.856 251.799 184.986 252.725 182.036 252.817Z" fill="#E84D51"/>
<path d="M126 135.793L126.317 189.613C129.862 217.078 162.158 239.309 176.217 247.755C180.251 250.174 185.396 250.028 189.403 247.398C203.171 238.345 233.695 215.545 236.962 189.137L237.253 137.59C237.253 99.3664 126 95.8639 126 135.793Z" fill="#F06D71"/>
<path d="M182.83 239.468C182.579 239.468 182.182 239.428 181.785 239.19C175.992 235.688 164.764 228.339 155.003 218.757C144.449 208.408 138.366 198.336 136.977 188.873L136.673 135.938C136.686 130.863 140.707 126.514 148.589 123.038C157.397 119.152 169.895 117.117 182.83 117.421C195.632 117.725 207.773 120.302 216.185 124.466C223.617 128.153 227.387 132.502 227.4 137.405L227.109 188.503C225.813 197.649 220.099 207.522 210.075 217.884C200.645 227.639 189.641 235.357 183.875 239.124C183.478 239.389 183.081 239.455 182.83 239.468Z" fill="#E84D51"/>
<path d="M181.507 235.846C175.662 232.251 165.266 225.299 156.18 216.378C146.261 206.623 140.535 197.266 139.186 188.608L138.881 135.991C138.895 132.356 142.228 129.026 148.787 126.131C157.119 122.443 169.075 120.501 181.507 120.778C193.834 121.056 205.446 123.488 213.421 127.426C219.623 130.493 222.758 133.837 222.771 137.379L222.48 188.291C221.21 196.684 215.801 205.87 206.345 215.651C197.55 224.704 187.327 232 181.507 235.846Z" fill="#DEF2F9"/>
<path d="M202.43 166.946L163.044 167.289C160.016 167.316 157.556 169.668 157.556 172.55V197.768C157.556 200.636 160.016 202.856 163.031 202.724L202.272 201.125C205.062 201.006 207.324 198.706 207.337 195.97L207.456 171.876C207.482 169.14 205.234 166.919 202.43 166.946Z" fill="#F06D71"/>
<path d="M188.133 181.405C188.147 178.616 185.753 176.422 182.83 176.607C180.238 176.766 178.095 178.854 177.95 181.365C177.831 183.308 178.889 184.987 180.489 185.846C181.163 186.203 181.507 186.97 181.375 187.723L180.238 194.094C180.092 194.9 180.74 195.614 181.587 195.587L184.47 195.481C185.316 195.455 185.951 194.702 185.819 193.895L184.721 187.591C184.589 186.837 184.972 186.084 185.66 185.674C187.128 184.789 188.12 183.203 188.133 181.405Z" fill="#212E44"/>
<path d="M201.875 164.448C200.698 164.461 199.732 163.522 199.745 162.346L199.772 156.848C199.798 151.336 195.235 146.789 189.548 146.737L176.693 146.604C170.808 146.552 165.967 151.138 165.967 156.821V162.491C165.967 163.694 164.936 164.672 163.679 164.685C162.41 164.699 161.378 163.721 161.378 162.518V156.834C161.378 148.706 168.308 142.163 176.706 142.282L189.562 142.467C197.642 142.573 204.097 149.036 204.057 156.861L204.03 162.333C204.017 163.496 203.065 164.434 201.875 164.448Z" fill="#F06D71"/>
<path d="M276.229 355.62C276.229 355.62 267.05 360.286 266.891 361.026C266.746 361.766 272.803 360.775 275.276 360.88C277.75 360.986 279.786 360.167 279.561 359.004C279.337 357.827 278.477 354.893 278.477 354.893L276.229 355.62Z" fill="#F06D71"/>
<path d="M275.898 351.827L276.454 356.453C276.454 356.453 277.908 357.034 278.887 356.347L279.31 351.285L275.898 351.827Z" fill="#8D4B45"/>
<path d="M319.146 351.946L320.217 353.862C320.521 354.404 320.6 355.038 320.455 355.66C320.085 357.259 319.331 360.365 319.013 361.171C318.577 362.268 312.625 362.929 312.625 362.929C312.625 362.929 312.096 362.096 313.326 361.092C314.556 360.087 315.35 359.929 315.786 358.435C316.223 356.955 316.514 352.752 316.514 352.752L319.146 351.946Z" fill="#F06D71"/>
<path d="M314.702 347.069C315.099 347.412 317.003 353.889 317.003 353.889C317.003 353.889 317.625 354.774 318.788 353.466C319.966 352.157 319.317 352.884 319.317 352.884L319.093 346.513L314.702 347.069Z" fill="#8D4B45"/>
<path d="M270.846 259.003C270.357 272.788 270.343 287.763 271.057 303.756C271.851 321.771 273.464 338.425 275.488 353.505C276.242 353.532 277.035 353.532 277.855 353.505C278.411 353.492 278.953 353.452 279.482 353.413C280.527 350.28 281.77 346.17 282.881 341.253C284.045 336.085 284.759 331.446 285.262 327.018C287.034 311.409 284.957 310.047 286.399 298.482C287.669 288.239 289.481 287.843 291.597 273.291C293.898 257.509 292.179 255.143 291.345 254.284C287.788 250.65 279.442 253.121 270.846 259.003Z" fill="#6C6BA3"/>
<path d="M291.332 254.284C287.946 250.808 280.21 252.91 272.036 258.21C281.439 269.563 282.471 276.925 281.334 281.71C280.064 287.116 276.189 288.662 276.202 294.57C276.215 301.826 282.088 303.756 281.955 311.435C281.876 316.511 279.297 316.458 278.689 322.736C277.974 330.164 281.334 332.715 280.249 338.2C279.786 340.566 278.437 343.645 274.628 346.831C274.906 349.091 275.184 351.311 275.475 353.505C276.229 353.532 277.022 353.532 277.842 353.505C278.398 353.492 278.94 353.452 279.456 353.413C280.5 350.28 281.744 346.17 282.855 341.253C284.018 336.085 284.733 331.446 285.235 327.018C287.007 311.409 284.931 310.047 286.373 298.482C287.642 288.239 289.454 287.843 291.57 273.291C293.871 257.509 292.165 255.143 291.332 254.284Z" fill="#51507A"/>
<path d="M276.665 258.765C284.759 272.008 293.501 288.477 301.304 308.197C307.203 323.106 311.488 337.09 314.636 349.567C315.059 349.791 316.064 350.227 317.347 350.042C319.093 349.778 320.137 348.536 320.415 348.192C321.698 339.257 321.553 331.684 321.116 326.212C320.838 322.709 320.349 316.881 318.352 309.691C316.117 301.628 314.583 301.179 311.66 292.654C308.631 283.811 309.372 281.604 306.462 270.528C305.272 265.981 303.275 259.214 299.982 251.112C292.218 253.676 284.442 256.227 276.665 258.765Z" fill="#6C6BA3"/>
<path d="M274.509 201.244C265.569 195.402 261.733 196.076 259.141 190.842C256.576 185.661 256.589 177.427 260.821 173.078C261.138 172.761 264.365 169.536 268.743 170.091C275.356 170.924 275.845 179.277 283.265 183.097C289.547 186.335 296.411 184.062 301.053 182.515C312.229 178.801 313.882 171.77 319.675 172.893C326.935 174.294 327.57 185.965 334.805 186.679C339.632 187.154 340.796 182.092 347.144 180.691C354.616 179.052 362.803 183.903 367.392 189.798C375.79 200.57 373.582 216.655 368.318 226.475C364.006 234.538 354.722 243.816 346.906 241.821C340.73 240.248 338.719 232.463 333.403 233.243C329.62 233.798 329.488 237.895 325.018 240.01C317.677 243.473 308.631 236.864 306.158 235.067C299.122 229.925 300.246 226.647 291.16 216.351C287.589 212.28 282.431 206.412 274.509 201.244Z" fill="#DEF2F9"/>
<path d="M210.471 178.55C210.471 178.55 208.964 176.435 207.998 174.863C207.046 173.29 202.562 168.875 202.562 168.875C202.562 168.875 202.219 169.576 203.184 170.699C204.149 171.823 206.173 173.739 205.71 174.545C205.247 175.352 203.938 176.079 204.877 177.612C205.829 179.145 207.469 178.101 208.315 179.33C209.162 180.559 210.022 181.907 210.022 181.907L210.471 178.55Z" fill="#8D4B45"/>
<path d="M211.053 177.162C210.035 178.881 209.016 180.612 207.998 182.33C209.056 185.793 210.894 190.604 214.095 195.68C215.51 197.913 219.888 204.482 227.307 209.769C237.412 216.959 255.808 223.66 261.191 216.007C265.992 209.187 258.242 194.054 256.814 191.344C253.917 192.864 249.169 194.873 243.059 195.349C241.062 195.508 235.851 195.865 229.979 193.842C219.121 190.115 213.09 180.705 211.053 177.162Z" fill="#F06D71"/>
<path d="M245.03 200.266C245.532 202.817 253.481 201.455 255.121 206.081C256.007 208.566 254.129 210.152 254.049 214.369C253.957 219.1 256.218 221.783 257.951 225.497C260.477 230.943 260.49 236.283 260.517 246.962C260.543 262.162 257.184 265.215 260.054 270.118C263.783 276.489 272.763 276.899 275.184 277.018C283.476 277.388 284.455 272.986 293.461 272.471C303.738 271.876 305.206 277.454 312.546 275.075C319.264 272.894 321.513 267.118 326.75 268.308C330.017 269.061 330.89 271.718 333.971 271.427C337.066 271.136 340.267 268.07 340.491 264.924C340.769 261.012 336.484 256.082 329.779 256.082C327.12 257.126 322.703 258.342 317.783 256.994C309.742 254.787 305.55 247.147 300.907 238.648C297.694 232.78 291.782 221.982 291.716 207.826C291.689 201.984 292.668 200.279 291.253 197.16C286.624 187.022 268.69 188.542 267.169 188.688C254.935 189.838 244.421 197.173 245.03 200.266Z" fill="#F06D71"/>
<path d="M241.022 213.007L263.559 213.985C263.81 213.999 264.021 214.17 264.101 214.435L274.721 247.332C274.88 247.808 274.39 248.984 273.954 248.931L251.682 245.548C251.457 245.521 251.259 245.35 251.18 245.112L240.136 214.408C239.964 213.959 240.586 212.994 241.022 213.007Z" fill="#51507A"/>
<path d="M240.678 213.813L263.215 214.792C263.466 214.805 263.678 214.977 263.757 215.241L274.377 248.138C274.536 248.614 274.192 249.103 273.742 249.05L251.325 246.354C251.1 246.328 250.902 246.156 250.822 245.918L240.083 214.725C239.925 214.289 240.242 213.8 240.678 213.813Z" fill="#6C6BA3"/>
<path d="M246.842 215.043L245.969 212.426C245.889 212.188 246.048 211.937 246.273 211.937H254.473C254.618 211.937 254.737 212.042 254.777 212.188L255.597 215.082C255.663 215.32 255.504 215.558 255.279 215.558L247.119 215.281C247 215.281 246.881 215.175 246.842 215.043Z" fill="#212E44"/>
<path d="M260.702 241.094C259.234 235.794 261.641 232.344 259.194 228.22C255.716 222.391 248.243 224.863 245.929 220.158C245.307 218.889 245.003 216.999 245.85 214.051L240.678 213.827C240.242 213.814 239.925 214.289 240.083 214.752L250.822 245.944C250.902 246.182 251.1 246.354 251.325 246.381L264.947 248.019C262.514 245.64 261.297 243.248 260.702 241.094Z" fill="#51507A"/>
<path d="M277.155 237.155C277.155 237.155 273.756 236.402 272.433 235.476C271.124 234.551 269.722 233.071 267.791 233.15C265.86 233.229 263.902 234.326 264.802 234.578C265.701 234.829 267.368 236.811 268.637 237.591C269.907 238.371 272.83 238.437 273.372 238.397C273.914 238.358 276.057 239.798 276.057 239.798L277.155 237.155Z" fill="#8D4B45"/>
<path opacity="0.3" d="M329.779 256.055C327.121 257.1 322.703 258.316 317.783 256.967C309.742 254.76 305.55 247.121 300.908 238.622C297.694 232.754 291.782 221.955 291.716 207.8C291.689 201.958 292.668 200.253 291.253 197.133C291.028 196.631 290.764 196.182 290.473 195.732C286.955 198.389 285.592 201.046 285.196 203.372C284.23 209.055 288.793 213.695 286.412 218.585C284.138 223.277 278.503 221.982 277.326 226C276.057 230.335 282.286 232.952 282.564 239.653C282.894 247.702 274.232 251.641 275.753 257.02C277.062 261.686 284.31 261.342 284.31 263.854C284.31 266.827 284.534 260.681 275.753 257.02C273.094 255.91 260.57 265.149 259.049 263.523C258.718 266.14 258.784 267.938 260.041 270.092C263.77 276.463 272.75 276.872 275.171 276.991C283.463 277.361 284.442 272.96 293.448 272.445C303.725 271.85 305.193 277.428 312.533 275.048C319.251 272.868 321.5 267.092 326.737 268.281C330.004 269.035 330.877 271.691 333.958 271.401C337.053 271.11 340.254 268.043 340.478 264.898C340.756 260.985 336.471 256.069 329.779 256.055Z" fill="#A33A3D"/>
<path d="M277.075 235.569C276.03 237.644 274.985 239.732 273.927 241.807C275.541 242.693 292.813 251.826 305.325 242.785C306.872 241.662 310.985 238.701 313.207 232.886C315.654 226.475 314.278 220.515 313.392 216.642C311.197 207.06 304.968 197.014 296.133 192.97C292.761 191.424 288.753 190.644 284.984 189.917C281.783 189.296 276.771 188.529 276.665 189.071C276.612 189.335 277.776 189.666 278.596 190.181C283.569 193.327 277.26 206.319 283.106 212.545C288.714 218.506 295.974 217.527 297.151 222.933C297.694 225.445 296.569 227.705 296.067 228.722C293.25 234.353 285.711 236.864 277.075 235.569Z" fill="#F06D71"/>
<path d="M265.357 179.317C265.357 179.317 267.381 185.899 269.907 186.93C272.433 187.961 276.427 189.137 276.93 189.586C277.432 190.036 263.506 195.098 255.703 192.772C257.924 191.688 258.52 191.331 258.52 191.331C259.115 190.987 260.226 190.34 261.257 189.309C261.958 188.608 263.069 187.313 263.902 185.146L263.175 181.405L265.357 179.317Z" fill="#8D4B45"/>
<path d="M266.257 182.198C266.257 182.198 265.08 185.119 262.289 184.67C259.789 184.273 259.922 177.255 261.614 176.065C262.183 175.669 263.334 175.51 264.18 175.867C264.775 176.118 266.561 177.744 266.164 180.136C266.72 179.806 267.262 179.859 267.447 180.149C267.685 180.52 267.301 181.194 267.209 181.352C266.918 181.881 266.468 182.106 266.257 182.198Z" fill="#8D4B45"/>
<path d="M125.894 165.677C125.894 165.677 127.097 161.606 129.174 161.487C131.237 161.368 139.053 158.156 138.141 159.993C137.228 161.831 134.001 162.558 134.001 162.558C134.001 162.558 135.562 166.166 132.07 167.065C128.552 167.95 121.225 172.153 125.894 165.677Z" fill="white"/>
<path d="M125.471 164.329C126.423 166.457 127.388 168.598 128.341 170.726C126.383 174.374 123.222 179.383 118.289 184.392C116.12 186.599 109.441 193.049 99.218 197.437C85.2915 203.412 61.0887 207.152 55.7589 197.517C50.9977 188.912 63.4429 173.594 65.7309 170.858C69.0637 173.144 65.3474 167.818 82.1703 178.127C84.3392 179.449 91.0843 180.163 98.7815 179.105C113.039 177.136 122.283 167.858 125.471 164.329Z" fill="#F06D71"/>
<path d="M66.1938 355.329C66.1938 355.329 65.6251 358.792 65.7045 360.021C65.7706 361.25 79.4326 361.885 79.5781 360.96C79.7104 360.035 77.3165 358.567 75.6369 358.052C73.944 357.537 69.0109 356.149 69.0109 356.149L66.1938 355.329Z" fill="#F06D71"/>
<path d="M69.5002 351.893L69.0637 356.188C69.0637 356.188 67.4767 357.233 66.0748 356.426L65.3738 351.747L69.5002 351.893Z" fill="white"/>
<path d="M41.8191 360.933C41.8191 360.933 41.2504 364.396 41.3298 365.625C41.3959 366.855 55.0579 367.489 55.2034 366.564C55.3356 365.639 52.9418 364.172 51.2621 363.656C49.5693 363.141 44.6362 361.753 44.6362 361.753L41.8191 360.933Z" fill="#F06D71"/>
<path d="M45.1388 357.484L44.7023 361.779C44.7023 361.779 43.1152 362.823 41.7133 362.017L41.0124 357.338L45.1388 357.484Z" fill="white"/>
<path d="M67.027 239.666C68.6009 242.865 70.1879 246.063 71.7618 249.262C73.0314 267.515 73.6663 287.367 73.2563 308.607C72.9521 324.401 72.1056 339.363 70.9021 353.413C68.7596 353.32 66.617 353.215 64.4745 353.122C61.3797 346.976 57.7295 337.684 57.3856 326.199C57.0285 314.224 60.6655 312.625 60.4407 301.166C60.1365 286.296 53.9073 282.331 50.5877 264.448C49.318 257.615 48.4583 248.68 49.4767 237.842C55.3224 238.45 61.1813 239.058 67.027 239.666Z" fill="#6C6BA3"/>
<path d="M49.4767 237.842C52.6376 238.173 55.7985 238.503 58.9594 238.834C64.6464 248.72 66.2335 259.016 65.2416 263.576C63.8264 270.026 60.0968 272.088 60.2952 278.551C60.4936 284.948 64.2761 286.613 66.6699 294.16C68.3231 299.381 67.8867 304.192 66.9477 313.576C65.0432 332.49 60.4804 338.279 64.3025 344.491C65.387 346.249 67.3576 348.351 71.1931 349.95C71.1005 351.113 71.0079 352.276 70.9021 353.426C68.7596 353.334 66.617 353.228 64.4745 353.135C61.3797 346.989 57.7294 337.698 57.3856 326.212C57.0285 314.237 60.6655 312.638 60.4407 301.179C60.1365 286.309 53.9073 282.344 50.5877 264.462C49.318 257.615 48.4583 248.68 49.4767 237.842Z" fill="#51507A"/>
<path d="M58.5362 245.429C55.5737 261.58 52.955 278.868 50.9051 297.2C48.4451 319.339 47.1226 340.209 46.6068 359.585C44.2526 359.651 41.9117 359.717 39.5575 359.784C30.2997 341.478 29.731 329.067 31.0667 320.978C31.5825 317.859 32.9844 311.752 33.3019 302.633C33.5267 296.275 33.1167 291.424 32.6141 285.609C31.5032 272.854 30.1542 270.066 29.9558 260.298C29.7706 251.139 29.731 246.499 32.3496 243.803C39.2401 236.692 57.174 244.808 58.5362 245.429Z" fill="#6C6BA3"/>
<path d="M73.5605 252.54C75.8088 248.812 72.9785 245.204 72.3437 238.133C71.6163 230.11 74.6979 228.775 77.7662 215.492C79.8029 206.65 81.7471 198.178 79.4194 188.238C78.3084 183.48 76.404 175.404 69.7251 171.505C66.2732 169.496 61.5649 169.695 52.2938 170.184C40.814 170.778 35.0873 171.082 30.8023 173.329C30.1807 173.66 17.1535 180.731 16.2674 192.27C15.3548 204.006 28.1439 205.579 29.85 221.241C30.6171 228.273 29.2549 239.071 28.3688 246.09C27.5223 252.817 26.9272 254.549 28.263 256.584C31.4635 261.501 41.2769 260.1 60.8904 257.298C68.5744 256.201 71.8808 255.328 73.5605 252.54Z" fill="#F06D71"/>
<path opacity="0.3" d="M43.7236 218.743C42.8904 221.797 39.9147 224.07 37.8383 231.498C37.3886 233.097 34.2012 244.504 38.3408 247.319C40.7347 248.945 42.8772 245.865 48.6832 245.468C58.7479 244.768 63.5355 253.227 70.1086 250.914C71.246 250.517 72.7537 249.658 74.2614 247.702C74.5656 249.473 74.5127 251.006 73.5737 252.566C71.8941 255.355 68.5877 256.227 60.8904 257.324C41.2769 260.126 31.4635 261.527 28.263 256.611C26.9404 254.575 27.5223 252.844 28.3688 246.116C29.2549 239.111 30.6171 228.299 29.85 221.268C28.1439 205.619 15.3548 204.033 16.2674 192.296C16.5054 189.164 17.6693 186.362 19.2167 183.93C35.4312 190.485 46.3291 209.148 43.7236 218.743Z" fill="#A33A3D"/>
<path d="M23.2241 241.834L26.4643 243.909C27.0462 243.235 28.3952 241.874 30.4981 241.411C32.8787 240.895 35.6032 241.636 35.6561 242.389C35.709 242.997 34.0426 243.605 33.7913 243.697C31.7149 244.464 30.1807 243.83 29.3475 244.662C29.0565 244.953 28.6862 245.508 27.8398 246.01C27.6149 246.143 27.3769 246.262 27.2579 246.314C25.8692 246.856 23.5018 244.451 23.3034 244.239L23.2241 241.834Z" fill="white"/>
<path d="M32.8125 199.275C35.1667 193.657 36.7934 185.053 33.0771 172.259C8.63626 181.894 -3.8222 204.707 1.0448 222.801C5.05214 237.71 19.6531 244.98 22.9066 246.5C23.6605 244.781 24.4276 243.05 25.1814 241.332C21.4121 237.129 17.1535 230.917 17.7619 223.832C18.5951 214.012 28.0646 210.655 32.8125 199.275Z" fill="#F06D71"/>
<path d="M51.6854 158.632C51.6854 158.632 51.487 162.901 50.1645 166.1C48.9609 168.994 42.6523 170.805 41.3827 171.453C40.0998 172.1 43.7765 173.99 47.4664 174.36C51.1564 174.73 61.6971 173.898 63.5884 172.497C65.4929 171.096 62.0674 171.201 59.4223 170.237C56.7905 169.272 55.2695 164.117 55.7324 161.791C56.2085 159.451 51.6854 158.632 51.6854 158.632Z" fill="white"/>
<path d="M57.5178 157.086C59.4355 155.209 59.7001 154.984 59.9117 154.336C60.7449 151.733 58.7214 148.151 56.063 147.279C55.9308 147.239 54.1453 146.657 53.4708 147.437C52.8889 148.098 53.7486 148.997 53.3386 150.266C52.955 151.455 51.9367 151.534 50.0322 153.094C48.4716 154.376 47.4929 155.169 47.268 156.279C46.8052 158.579 49.5957 161.923 52.0689 161.831C52.955 161.791 53.1931 161.328 57.5178 157.086Z" fill="#212E44"/>
<path d="M52.307 162.174C52.307 162.174 54.3437 164.474 57.4385 163.721C60.2158 163.033 59.5017 156.676 57.4782 155.658C56.8037 155.315 55.5737 155.341 54.6479 155.79C54.1057 156.055 53.947 156.332 53.0476 156.742C52.2144 157.125 51.9499 157.072 51.7251 157.337C51.4473 157.667 51.3283 158.394 52.2012 160.139C51.5664 159.689 50.8919 159.597 50.4686 159.888C50.4025 159.941 50.2306 160.099 50.1645 160.324C49.8999 161.104 50.7199 161.91 52.307 162.174Z" fill="white"/>
<path d="M270.595 71.4124C273.782 73.0249 277.789 71.5446 279.548 68.0949C281.307 64.6453 280.143 60.5347 276.943 58.909C276.784 58.8297 276.612 58.7504 276.44 58.6843C277.035 56.7679 277.485 54.8514 277.776 52.9217C277.961 52.9217 278.146 52.9217 278.332 52.8952C281.969 52.5648 284.865 49.2341 284.786 45.4276C284.706 41.6342 281.691 38.8058 278.054 39.1362C277.869 39.1494 277.67 39.1891 277.485 39.2155C277.102 37.3387 276.586 35.4883 275.925 33.7172C276.096 33.6247 276.255 33.5189 276.427 33.4C279.535 31.2191 280.54 26.9104 278.649 23.7911C276.758 20.6587 272.711 19.8921 269.603 22.0729C269.444 22.1786 269.299 22.3108 269.14 22.4298C267.91 21.0684 266.561 19.8128 265.106 18.6629C265.212 18.491 265.304 18.3192 265.397 18.1474C267.156 14.6977 269.444 10.9308 266.23 9.35801C258.797 5.7233 255.597 8.82932 253.851 12.2922C253.759 12.4773 253.679 12.6491 253.613 12.8341C251.828 12.3319 250.016 11.9882 248.191 11.8032C248.204 11.6049 248.217 11.4199 248.204 11.2216C248.124 7.42831 249.262 5.36644 245.598 5.30035C237.637 5.14174 234.939 8.60463 235.018 12.398C235.018 12.5962 235.044 12.7945 235.058 12.9795C233.232 13.495 231.434 14.169 229.688 14.9753C229.609 14.8035 229.516 14.6316 229.423 14.473C227.532 11.3406 223.485 10.574 220.377 12.7548C217.269 14.9356 216.264 19.2444 218.155 22.3637C218.248 22.5223 218.354 22.6677 218.459 22.8263C217.084 24.2008 215.788 25.7076 214.598 27.3069C214.439 27.2144 214.28 27.1218 214.122 27.0293C210.934 25.4168 206.927 26.8971 205.168 30.3468C203.409 33.7965 204.573 37.907 207.773 39.5327C207.932 39.612 208.104 39.6913 208.276 39.7574C207.681 41.6739 207.231 43.5904 206.94 45.5201C206.755 45.5201 206.57 45.5201 206.385 45.5465C202.748 45.8769 199.851 49.2077 199.93 53.0142C200.01 56.8075 203.025 59.636 206.662 59.3056C206.847 59.2923 207.046 59.2527 207.231 59.2262C207.615 61.1031 208.13 62.9535 208.792 64.7246C208.62 64.8171 208.461 64.9228 208.289 65.0418C205.181 67.2226 204.176 71.5314 206.067 74.6506C207.958 77.7831 214.201 79.237 217.309 77.0562C217.468 76.9504 215.431 76.1442 215.576 76.012C216.806 77.3734 218.155 78.629 219.61 79.7789C219.504 79.9507 219.412 80.1225 219.319 80.2944C217.56 83.744 218.724 87.8546 221.925 89.4803C225.112 91.0928 229.119 89.6124 230.878 86.1628C230.971 85.9777 231.05 85.8059 231.116 85.6209C232.902 86.1231 234.714 86.4668 236.539 86.6518C236.526 86.8501 236.512 87.0351 236.526 87.2334C236.605 91.0267 239.62 93.8551 243.257 93.5247C246.894 93.1943 249.791 89.8636 249.711 86.057C249.711 85.8588 249.685 85.6605 249.672 85.4755C251.497 84.96 253.296 84.2859 255.041 83.4929C255.121 83.6647 255.213 83.8365 255.306 83.9952C257.197 87.1276 261.244 87.8942 264.352 85.7134C267.46 83.5326 268.465 79.2238 266.574 76.1045C266.481 75.9459 266.376 75.8005 266.27 75.6419C267.645 74.2673 268.941 72.7738 270.132 71.1613C270.264 71.2406 270.423 71.3331 270.595 71.4124ZM230.825 71.9147C219.24 66.0331 215.021 51.1109 221.382 38.5811C227.744 26.0512 242.305 20.6454 253.878 26.5271C265.463 32.4087 269.682 47.3308 263.321 59.8607C256.959 72.4037 242.411 77.7963 230.825 71.9147Z" fill="#A33A3D"/>
<path d="M278.332 52.9082C281.969 52.5778 284.865 49.247 284.786 45.4405C284.706 41.6472 281.691 38.8187 278.054 39.1492C277.869 39.1624 277.67 39.202 277.485 39.2285C277.102 37.3516 276.586 35.5012 275.925 33.7301C276.096 33.6376 276.255 33.5319 276.427 33.4129C279.535 31.2321 283.397 25.9585 281.202 23.0507C277.035 17.5127 272.711 19.905 269.603 22.0858C269.444 22.1916 269.299 22.3238 269.14 22.4427C267.91 21.0813 266.561 19.8257 265.106 18.6758C265.212 18.504 265.304 18.3322 265.397 18.1604C266.349 16.2835 266.442 14.2084 265.807 12.4506C262.805 17.7374 259.829 23.0507 256.919 28.3904C266.164 35.1576 269.1 48.4937 263.321 59.8604C258.427 69.4957 248.693 74.9015 239.197 74.2274C238.774 75.3244 238.364 76.4347 237.901 77.5185C236.671 80.4659 235.269 83.3604 233.867 86.2418C234.753 86.4136 235.64 86.5326 236.526 86.6251C236.512 86.8233 236.499 87.0084 236.512 87.2066C236.592 90.9999 238.893 94.2381 245.493 93.8813C249.143 93.683 249.764 89.8236 249.698 86.0303C249.698 85.832 249.672 85.6338 249.659 85.4487C251.484 84.9333 253.282 84.2592 255.028 83.453C255.108 83.6248 255.2 83.7966 255.293 83.9552C257.184 87.0877 263.717 88.4094 266.839 86.2286C269.947 84.0477 268.465 79.1838 266.574 76.0514C266.482 75.8928 266.376 75.7474 266.27 75.5888C267.645 74.2142 268.941 72.7207 270.132 71.1082C270.29 71.2007 270.449 71.2932 270.608 71.3857C273.795 72.9982 277.803 71.5179 279.562 68.0682C281.321 64.6186 280.157 60.508 276.956 58.8823C276.797 58.803 276.626 58.7237 276.454 58.6576C277.049 56.7411 277.498 54.8247 277.789 52.895C277.961 52.9346 278.146 52.9214 278.332 52.9082Z" fill="#A33A3D"/>
<path d="M274.02 71.8087C277.207 73.4212 281.215 71.9408 282.974 68.4912C284.733 65.0415 283.569 60.931 280.368 59.3053C280.21 59.226 280.038 59.1467 279.866 59.0806C280.461 57.1641 280.911 55.2476 281.202 53.3179C281.387 53.3179 281.572 53.3179 281.757 53.2915C285.394 52.961 288.29 49.6303 288.211 45.8238C288.132 42.0305 285.116 39.202 281.479 39.5324C281.294 39.5457 281.096 39.5853 280.911 39.6117C280.527 37.7349 280.011 35.8845 279.35 34.1134C279.522 34.0209 279.681 33.9152 279.853 33.7962C282.961 31.6154 283.966 27.3066 282.074 24.1874C280.183 21.0549 276.136 20.2883 273.028 22.4691C272.869 22.5749 272.724 22.707 272.565 22.826C271.335 21.4646 269.986 20.209 268.531 19.0591C268.637 18.8873 268.73 18.7155 268.822 18.5436C270.581 15.094 269.418 10.9834 266.217 9.35774C263.03 7.74525 259.022 9.22556 257.263 12.6752C257.171 12.8603 257.091 13.0321 257.025 13.2171C255.24 12.7149 253.428 12.3712 251.603 12.1862C251.616 11.9879 251.629 11.8029 251.616 11.6046C251.537 7.81133 248.521 4.98287 244.884 5.31329C241.247 5.64372 238.351 8.97444 238.43 12.781C238.43 12.9792 238.457 13.1775 238.47 13.3625C236.645 13.878 234.846 14.5521 233.1 15.3583C233.021 15.1865 232.928 15.0147 232.836 14.8561C230.944 11.7236 226.897 10.957 223.789 13.1378C220.681 15.3187 219.676 19.6274 221.568 22.7467C221.66 22.9053 221.766 23.0507 221.872 23.2093C220.496 24.5839 219.2 26.0774 218.01 27.6899C217.851 27.5974 217.692 27.5048 217.534 27.4123C214.346 25.7998 210.339 27.2802 208.58 30.7298C206.821 34.1795 207.985 38.29 211.185 39.9157C211.357 39.995 211.516 40.0743 211.688 40.1404C211.093 42.0569 210.643 43.9734 210.352 45.9031C210.167 45.9031 209.982 45.9031 209.797 45.9295C206.16 46.26 203.263 49.5907 203.343 53.3972C203.422 57.1905 206.437 60.019 210.074 59.6886C210.26 59.6753 210.458 59.6357 210.643 59.6093C211.027 61.4861 211.543 63.3365 212.204 65.1076C212.032 65.2001 211.873 65.3058 211.701 65.4248C208.593 67.6056 207.588 71.9144 209.479 75.0336C211.371 78.1661 215.418 78.9327 218.526 76.7519C218.684 76.6461 218.83 76.514 218.989 76.395C220.218 77.7564 221.568 79.012 223.022 80.1619C222.917 80.3337 222.824 80.5055 222.731 80.6774C220.972 84.127 222.136 88.2376 225.337 89.8633C228.524 91.4758 232.531 89.9954 234.29 86.5458C234.383 86.3607 234.462 86.1889 234.529 86.0039C236.314 86.5061 238.126 86.8498 239.951 87.0348C239.938 87.2331 239.925 87.4181 239.938 87.6164C240.017 91.4097 243.033 94.2381 246.67 93.9077C250.307 93.5773 253.203 90.2466 253.124 86.44C253.124 86.2418 253.097 86.0435 253.084 85.8585C254.909 85.343 256.708 84.6689 258.454 83.8627C258.533 84.0345 258.625 84.2063 258.718 84.3649C260.609 87.4974 264.656 88.264 267.764 86.0832C270.872 83.9023 271.878 79.6068 269.986 76.4743C269.894 76.3157 269.788 76.1703 269.682 76.0117C271.058 74.6371 272.354 73.1436 273.544 71.5311C273.703 71.6236 273.861 71.7161 274.02 71.8087ZM234.251 72.3109C222.665 66.4293 218.446 51.5072 224.808 38.9773C231.169 26.4475 245.731 21.0417 257.303 26.9233C268.889 32.8049 273.107 47.7271 266.746 60.2569C260.384 72.7867 245.836 78.1793 234.251 72.3109Z" fill="#F06D71"/>
<path d="M328.84 117.593C331.049 118.717 333.839 117.686 335.056 115.293C336.273 112.901 335.466 110.046 333.257 108.923C333.138 108.87 333.019 108.817 332.913 108.764C333.323 107.442 333.641 106.107 333.839 104.773C333.972 104.773 334.091 104.773 334.223 104.759C336.749 104.535 338.746 102.222 338.693 99.5782C338.64 96.948 336.551 94.9919 334.024 95.2166C333.892 95.2298 333.76 95.243 333.628 95.2694C333.363 93.9609 333.006 92.6921 332.543 91.4497C332.662 91.3836 332.781 91.3175 332.887 91.2382C335.043 89.7315 335.744 86.7444 334.434 84.5768C333.125 82.4092 330.308 81.8805 328.152 83.3873C328.046 83.4666 327.941 83.5459 327.835 83.6384C326.975 82.7 326.049 81.8276 325.031 81.0214C325.097 80.9024 325.177 80.7835 325.229 80.6645C326.446 78.2722 328.033 75.6552 325.811 74.5714C320.653 72.0602 318.431 74.2146 317.228 76.6069C317.162 76.7258 317.109 76.858 317.056 76.9769C315.813 76.6333 314.556 76.3954 313.287 76.2632C313.3 76.1311 313.3 75.9989 313.3 75.8667C313.247 73.2365 314.027 71.8091 311.501 71.7562C305.973 71.6504 304.108 74.0427 304.161 76.6862C304.161 76.8183 304.174 76.9637 304.188 77.0959C302.918 77.4528 301.675 77.9154 300.471 78.4705C300.418 78.3515 300.352 78.2326 300.286 78.1268C298.977 75.9592 296.173 75.4305 294.004 76.9373C291.848 78.444 291.147 81.4311 292.456 83.5987C292.523 83.7045 292.602 83.8102 292.668 83.9159C291.716 84.8676 290.817 85.9117 289.983 87.022C289.877 86.9559 289.772 86.8898 289.653 86.8369C287.444 85.7135 284.653 86.7444 283.437 89.1367C282.22 91.529 283.027 94.3839 285.235 95.5073C285.354 95.5602 285.473 95.6131 285.579 95.666C285.169 96.9877 284.852 98.3226 284.653 99.6575C284.521 99.6575 284.402 99.6575 284.27 99.6707C281.744 99.8954 279.747 102.208 279.8 104.852C279.853 107.482 281.942 109.438 284.468 109.214C284.6 109.2 284.733 109.187 284.865 109.161C285.129 110.469 285.487 111.738 285.95 112.98C285.83 113.046 285.711 113.113 285.606 113.192C283.45 114.699 282.749 117.686 284.058 119.853C285.368 122.021 289.692 123.025 291.861 121.519C291.967 121.439 290.552 120.884 290.658 120.792C291.517 121.73 292.443 122.602 293.462 123.409C293.395 123.528 293.316 123.647 293.263 123.766C292.046 126.158 292.853 129.013 295.062 130.136C297.271 131.26 300.061 130.229 301.278 127.836C301.344 127.717 301.397 127.585 301.45 127.466C302.693 127.81 303.949 128.048 305.219 128.18C305.206 128.312 305.206 128.444 305.206 128.577C305.259 131.207 307.348 133.163 309.875 132.938C312.401 132.714 314.398 130.401 314.345 127.757C314.345 127.625 314.332 127.48 314.318 127.347C315.588 126.991 316.831 126.528 318.035 125.973C318.088 126.092 318.154 126.211 318.22 126.316C319.529 128.484 322.333 129.013 324.502 127.506C326.658 125.999 327.359 123.012 326.049 120.845C325.983 120.739 325.904 120.633 325.838 120.527C326.79 119.576 327.689 118.532 328.523 117.421C328.615 117.474 328.721 117.54 328.84 117.593ZM301.251 117.95C293.21 113.879 290.287 103.517 294.705 94.8201C299.122 86.1232 309.213 82.3827 317.254 86.4536C325.296 90.5245 328.218 100.887 323.801 109.584C319.384 118.28 309.279 122.021 301.251 117.95Z" fill="#A33A3D"/>
<path d="M334.209 104.759C336.736 104.534 338.733 102.221 338.68 99.5779C338.627 96.9476 336.537 94.9915 334.011 95.2162C333.879 95.2294 333.747 95.2426 333.614 95.2691C333.35 93.9606 332.993 92.6917 332.53 91.4493C332.649 91.3832 332.768 91.3171 332.874 91.2378C335.029 89.7311 337.701 86.0699 336.18 84.0477C333.284 80.2015 330.295 81.8669 328.139 83.3869C328.033 83.4662 327.927 83.5455 327.822 83.638C326.962 82.6996 326.036 81.8272 325.018 81.021C325.084 80.902 325.163 80.7831 325.216 80.6641C325.877 79.3556 325.93 77.9282 325.494 76.699C323.404 80.3733 321.354 84.0477 319.331 87.7617C325.745 92.4538 327.782 101.706 323.775 109.596C320.376 116.284 313.631 120.038 307.044 119.562C306.753 120.329 306.462 121.095 306.145 121.849C305.285 123.897 304.32 125.906 303.354 127.902C303.963 128.021 304.584 128.114 305.193 128.167C305.179 128.299 305.179 128.431 305.179 128.563C305.232 131.193 306.833 133.44 311.409 133.189C313.935 133.057 314.371 130.374 314.318 127.744C314.318 127.611 314.305 127.466 314.292 127.334C315.561 126.977 316.805 126.514 318.008 125.959C318.061 126.078 318.127 126.197 318.193 126.303C319.503 128.471 324.039 129.396 326.195 127.876C328.351 126.369 327.319 122.985 326.01 120.818C325.944 120.712 325.864 120.606 325.798 120.501C326.75 119.549 327.65 118.505 328.483 117.395C328.589 117.461 328.694 117.527 328.813 117.58C331.022 118.703 333.813 117.672 335.029 115.28C336.246 112.888 335.439 110.033 333.231 108.909C333.112 108.856 332.993 108.803 332.887 108.751C333.297 107.429 333.614 106.094 333.813 104.759C333.945 104.772 334.077 104.772 334.209 104.759Z" fill="#A33A3D"/>
<path d="M331.22 117.87C333.429 118.994 336.22 117.963 337.436 115.571C338.653 113.178 337.846 110.323 335.638 109.2C335.519 109.147 335.4 109.094 335.294 109.041C335.704 107.72 336.021 106.385 336.22 105.05C336.352 105.05 336.471 105.05 336.603 105.037C339.129 104.812 341.126 102.499 341.074 99.8554C341.021 97.2252 338.931 95.2691 336.405 95.4938C336.273 95.507 336.14 95.5202 336.008 95.5467C335.744 94.2382 335.387 92.9693 334.924 91.7269C335.043 91.6608 335.162 91.5947 335.268 91.5154C337.423 90.0087 338.124 87.0216 336.815 84.854C335.506 82.6864 332.689 82.1577 330.533 83.6645C330.427 83.7438 330.321 83.8231 330.215 83.9156C329.356 82.9772 328.43 82.1048 327.412 81.2986C327.478 81.1796 327.557 81.0607 327.61 80.9417C328.827 78.5494 328.02 75.6945 325.811 74.5711C323.603 73.4476 320.812 74.4785 319.595 76.8708C319.529 76.9898 319.476 77.122 319.423 77.2409C318.18 76.8973 316.924 76.6594 315.654 76.5272C315.667 76.395 315.667 76.2629 315.667 76.1307C315.614 73.5005 313.525 71.5443 310.999 71.769C308.473 71.9937 306.476 74.3067 306.528 76.9502C306.528 77.0823 306.542 77.2277 306.555 77.3599C305.285 77.7167 304.042 78.1793 302.838 78.7345C302.786 78.6155 302.719 78.4966 302.653 78.3908C301.344 76.2232 298.527 75.6945 296.371 77.2013C294.215 78.708 293.514 81.6951 294.824 83.8627C294.89 83.9684 294.969 84.0742 295.035 84.1799C294.083 85.1316 293.184 86.1757 292.351 87.286C292.245 87.2199 292.139 87.1538 292.02 87.1009C289.811 85.9775 287.021 87.0084 285.804 89.4007C284.587 91.793 285.394 94.6479 287.603 95.7713C287.722 95.8242 287.841 95.8771 287.947 95.9299C287.537 97.2517 287.219 98.5866 287.021 99.9215C286.888 99.9215 286.769 99.9215 286.637 99.9347C284.111 100.159 282.114 102.472 282.167 105.116C282.22 107.746 284.31 109.702 286.836 109.478C286.968 109.464 287.1 109.451 287.232 109.425C287.497 110.733 287.854 112.002 288.317 113.244C288.198 113.31 288.079 113.377 287.973 113.456C285.817 114.963 285.116 117.95 286.426 120.117C287.735 122.285 290.552 122.814 292.708 121.307C292.814 121.228 292.919 121.148 293.025 121.056C293.885 121.994 294.811 122.866 295.829 123.673C295.763 123.792 295.683 123.911 295.631 124.03C294.414 126.422 295.221 129.277 297.429 130.4C299.638 131.524 302.428 130.493 303.645 128.1C303.711 127.981 303.764 127.849 303.817 127.73C305.06 128.074 306.317 128.312 307.586 128.444C307.573 128.576 307.573 128.708 307.573 128.841C307.626 131.471 309.716 133.427 312.242 133.202C314.768 132.978 316.765 130.665 316.712 128.021C316.712 127.889 316.699 127.744 316.686 127.611C317.955 127.255 319.198 126.792 320.402 126.237C320.455 126.356 320.521 126.475 320.587 126.58C321.896 128.748 324.7 129.277 326.869 127.77C329.025 126.263 329.726 123.276 328.417 121.109C328.351 121.003 328.271 120.897 328.205 120.791C329.157 119.84 330.057 118.796 330.89 117.685C330.996 117.738 331.101 117.804 331.22 117.87ZM303.632 118.214C295.591 114.143 292.668 103.781 297.085 95.0841C301.503 86.3872 311.594 82.6467 319.635 86.7176C327.676 90.7885 330.599 101.151 326.182 109.848C321.764 118.544 311.66 122.298 303.632 118.214Z" fill="#F06D71"/>
<path d="M122.019 248.971C122.019 248.971 114.123 245.72 116.266 242.111C118.408 238.516 118.951 240.116 118.951 240.116C118.951 240.116 114.996 237.975 120.445 236.098C125.894 234.221 127.084 236.521 130.51 235.212C133.935 233.917 136.382 239.376 133.512 240.909C130.642 242.442 127.957 243.288 127.957 243.288C127.957 243.288 123.818 252.143 122.019 248.971Z" fill="#212E44"/>
<path d="M124.333 357.96C124.333 357.96 124.122 359.665 124.267 360.233C124.413 360.801 129.372 361.211 131.052 361.013C132.732 360.815 130.047 359.096 128.975 358.779C127.904 358.462 124.333 357.96 124.333 357.96Z" fill="#F06D71"/>
<path d="M126.833 355.118L126.304 358.541C126.304 358.541 124.968 359.136 124.333 358.554L124.267 354.973L126.833 355.118Z" fill="white"/>
<path d="M103.08 354.973C103.08 354.973 104.138 355.752 103.847 356.691C103.569 357.629 101.109 361.37 99.3635 362.427C97.6177 363.484 98.16 361.277 98.6758 359.903C99.1916 358.528 100.488 355.488 100.99 354.973C101.493 354.457 103.08 354.973 103.08 354.973Z" fill="#F06D71"/>
<path d="M104.971 351.206C104.469 352.62 103.979 353.783 103.596 354.642C102.749 356.545 102.286 357.259 101.757 357.88C101.294 358.422 100.223 359.572 99.9322 359.374C99.6412 359.175 100.435 357.788 101.956 353.69C102.181 353.096 102.881 351.206 102.881 351.206H104.971Z" fill="white"/>
<path d="M137.228 292.006C137.585 295.561 137.942 301.099 137.413 307.801C136.739 316.537 134.98 322.075 132.798 331.393C131.462 337.09 129.65 345.469 128.01 355.964C127.626 356.175 126.516 356.757 125.074 356.532C124.267 356.413 123.672 356.096 123.315 355.858C119.03 342.76 120.286 334.645 122.363 329.596C123.249 327.441 124.32 325.736 124.889 322.432C125.643 318.044 124.704 315.599 123.381 305.448C122.429 298.205 122.601 297.095 123.222 296.011C125.748 291.662 133.485 291.742 137.228 292.006Z" fill="#6C6BA3"/>
<path d="M126.661 293.526C124.029 307.087 121.45 314.211 119.506 318.229C119.03 319.22 117.416 322.432 115.895 327.018C114.546 331.089 113.991 334.076 113.7 335.398C112.801 339.548 110.552 345.628 104.535 353.585C104.455 353.624 103.437 354.206 102.445 353.69C101.943 353.426 101.704 353.016 101.599 352.818C102.392 345.205 103.292 338.808 104.072 333.878C104.231 332.847 104.958 328.313 106.095 322.326C106.545 319.987 107.193 316.55 107.973 313.034C108.952 308.646 110.433 302.672 112.735 295.522C117.39 294.861 122.019 294.187 126.661 293.526Z" fill="#6C6BA3"/>
<path d="M139.186 278.141C139.014 278.181 138.286 278.419 138.009 281.459C137.321 288.768 141.13 291.728 140.191 295.694C139.291 299.5 134.702 301.351 129.967 303.254C126.807 304.523 117.033 308.448 111.359 304.034C108.965 302.17 108.701 299.923 106.995 291.676C102.657 270.713 98.3584 268.48 100.184 263.946C103.318 256.148 114.308 253.346 115.71 252.817C130.576 247.094 148.139 257.615 155.083 269.709C155.995 271.295 161.457 280.811 157.622 285.318C155.308 288.041 149.978 288.49 146.46 286.627C141.751 284.129 140.759 277.784 139.186 278.141Z" fill="#F06D71"/>
<path opacity="0.3" d="M112.536 261.699C113.475 264.25 110.658 266.47 111.862 269.233C113.594 273.211 120.471 271.163 122.918 275.101C125.828 279.754 119.162 287.393 121.913 290.01C123.169 291.2 124.611 289.68 128.288 290.512C133.512 291.702 135.072 295.826 137.506 295.205C138.273 295.006 139.199 294.319 139.979 292.178C140.323 293.367 140.482 294.491 140.191 295.707C139.291 299.513 134.702 301.364 129.967 303.267C126.807 304.536 117.033 308.461 111.359 304.047C108.965 302.183 108.701 299.936 106.995 291.689C102.657 270.726 100.977 268.929 102.802 264.382C103.794 261.911 105.315 259.888 106.981 258.276C110.566 259.056 112.034 260.351 112.536 261.699Z" fill="#A33A3D"/>
<path d="M126.264 249.672C126.026 251.099 127.018 252.434 128.446 252.619C130.179 252.844 132.308 253.174 133.247 253.584C134.98 254.337 128.261 253.994 122.178 254.522C118.382 254.853 115.499 254.747 113.872 254.615C113.435 254.575 113.33 253.98 113.74 253.809C115.208 253.148 116.927 252.143 118.977 251.641C121.516 251.033 124.32 245.046 124.32 245.046L126.754 246.804L126.264 249.672Z" fill="white"/>
<path d="M122.283 248.271C122.283 248.271 124.876 251.218 128.843 250.253C132.388 249.381 131.502 241.252 128.909 239.944C128.05 239.508 126.476 239.547 125.286 240.116C124.585 240.446 124.386 240.803 123.236 241.332C122.178 241.821 121.834 241.754 121.543 242.085C121.186 242.508 121.027 243.433 122.151 245.667C121.344 245.098 120.471 244.979 119.942 245.35C119.863 245.416 119.638 245.627 119.546 245.905C119.202 246.896 120.247 247.927 122.283 248.271Z" fill="white"/>
<path d="M145.177 265.559C145.256 264.766 144.661 264.118 143.867 264.118H126.701C125.907 264.118 125.206 264.766 125.14 265.559L123.315 287.975C123.249 288.741 123.831 289.376 124.624 289.376H141.553C142.333 289.376 143.034 288.755 143.1 287.975L145.177 265.559Z" fill="url(#paint0_linear)"/>
<path d="M145.64 265.559L143.537 287.988C143.471 288.755 142.77 289.389 141.989 289.389H125.074C124.294 289.389 123.698 288.768 123.765 287.988L125.59 265.559C125.656 264.805 126.291 264.184 127.045 264.131C127.084 264.131 127.111 264.131 127.15 264.131H144.33C145.137 264.118 145.719 264.766 145.64 265.559Z" fill="#6C6BA3"/>
<path d="M141.725 289.376H125.074C124.294 289.376 123.698 288.755 123.765 287.975L125.59 265.545C125.656 264.792 126.291 264.171 127.045 264.118C127.018 264.171 126.992 264.21 126.978 264.237C126.661 264.885 126.542 265.651 126.806 266.325C127.481 267.991 129.743 268.334 130.946 269.497C131.74 270.264 132.163 271.334 132.229 272.405C132.282 273.357 131.964 274.282 132.097 275.234C132.308 276.648 133.684 276.991 134.967 277.243C136.62 277.573 138.339 277.784 139.596 278.961C141.209 280.481 140.68 282.992 140.693 284.908C140.707 286.336 140.561 288.147 141.632 289.297L141.725 289.376Z" fill="#51507A"/>
<path d="M121.529 278.3L121.887 277.718C122.204 276.516 123.355 275.736 124.585 275.881L126.449 276.106C127.031 276.172 127.428 276.727 127.309 277.309C127.137 278.141 126.687 279.133 125.55 279.053C123.606 278.921 122.363 281.75 122.363 281.75L121.622 280.705C121.106 279.992 121.08 279.04 121.529 278.3Z" fill="white"/>
<path d="M121.516 277.705C121.119 278.075 117.046 281.657 112.153 280.428C107.894 279.357 105.275 275.22 104.812 271.744C103.728 263.457 112.1 258.117 110.764 256.439C109.97 255.434 108.145 255.765 105.315 257.509C102.379 259.32 94.4304 264.21 92.7375 273.819C92.592 274.639 90.7272 286.085 97.2606 290.816C103.305 295.191 115.155 292.812 123.169 282.463C122.627 280.877 122.072 279.291 121.516 277.705Z" fill="#F06D71"/>
<path d="M146.526 275.075L146.235 274.586C145.97 273.581 145.005 272.921 143.973 273.053L142.413 273.238C141.923 273.304 141.593 273.766 141.698 274.242C141.844 274.93 142.214 275.762 143.166 275.696C144.793 275.59 145.825 277.943 145.825 277.943L146.446 277.071C146.883 276.489 146.909 275.696 146.526 275.075Z" fill="white"/>
</g>
<defs>
<linearGradient id="paint0_linear" x1="144.849" y1="276.927" x2="121.011" y2="276.524" gradientUnits="userSpaceOnUse">
<stop stop-color="#444B8C"/>
<stop offset="0.9964" stop-color="#26264F"/>
</linearGradient>
<clipPath id="clip0">
<rect width="373" height="367" fill="white"/>
</clipPath>
</defs>
</svg>
