<svg width="1440" height="531" viewBox="0 0 1440 531" fill="none" xmlns="http://www.w3.org/2000/svg">
<path opacity="0.5" fill-rule="evenodd" clip-rule="evenodd" d="M1433.2 160.653C1434.11 161.668 1435.03 162.683 1435.99 163.646C1437.27 165.092 1438.56 166.377 1440 167.501V530.839H0V158.829C2.02079 158.829 4.0592 158.811 6.1094 158.793C10.2456 158.757 14.4297 158.721 18.6138 158.829L19.5143 158.86C28.5309 159.171 37.688 159.487 46.6949 159.953C47.6577 160.033 48.6205 160.234 49.5833 160.435C50.5461 160.635 51.5088 160.836 52.4716 160.916C53.7552 161.077 55.1992 161.077 56.4828 161.077H56.4832H56.4838C58.7301 161.077 60.9764 161.077 63.2226 160.916C64.8273 160.756 66.4319 160.595 68.0366 160.274C74.9365 159.15 80.3922 155.135 85.6875 150.959C89.6991 147.748 93.3898 144.375 96.7595 140.521C99.3269 137.63 100.611 134.258 101.894 130.724C103.224 127.04 104.423 123.29 105.617 119.557C106.296 117.434 106.973 115.316 107.671 113.22C107.992 112.256 108.313 111.292 108.152 110.329C107.622 106.745 108.188 103.38 108.762 99.9625C108.883 99.2456 109.004 98.5265 109.115 97.8025C109.436 96.1965 109.436 94.5906 109.276 92.1816C109.386 91.2443 109.477 90.2881 109.569 89.326C109.745 87.4856 109.922 85.6235 110.238 83.8307C110.559 81.8232 110.92 79.8158 111.281 77.8083C111.643 75.8009 112.004 73.7935 112.324 71.786C113.127 67.2894 115.052 63.5957 118.262 60.5444C118.766 60.0397 119.223 59.4875 119.681 58.9326C120.683 57.7215 121.695 56.4974 123.236 55.7265C123.717 55.5659 124.199 54.763 124.199 54.1206C124.199 51.5143 125.634 49.8218 127.092 48.1016C127.251 47.9138 127.411 47.7258 127.569 47.5362C129.334 45.2878 131.58 43.3607 133.666 41.5941C134.826 40.6651 136.071 39.9041 137.338 39.1288C137.823 38.8319 138.312 38.5329 138.801 38.2216C138.801 38.2216 138.48 37.7399 138.641 37.5793C139.122 36.9369 139.603 36.2543 140.085 35.5718C140.566 34.8893 141.047 34.2068 141.529 33.5644C142.813 31.7978 144.417 30.6737 146.664 30.6737C147.226 30.6737 147.71 30.437 148.225 30.1848C148.445 30.0772 148.67 29.9668 148.91 29.8707C150.675 29.0677 152.44 28.5859 154.526 29.2283C157.415 30.0313 159.822 28.5859 162.229 26.8194C163.298 26.106 164.455 25.4806 165.57 24.8781C165.961 24.6668 166.347 24.4583 166.722 24.2499C167.04 24.0679 167.358 23.8989 167.672 23.7318C168.468 23.3088 169.241 22.8983 169.931 22.3227C170.894 21.3592 171.696 21.3592 172.659 22.3227C173.42 23.1793 174.237 23.923 175.077 24.6877C175.654 25.2133 176.243 25.7488 176.831 26.3376C177.366 25.9359 177.929 25.5621 178.485 25.193C179.263 24.6766 180.027 24.1694 180.682 23.6075C181.003 23.2863 181.324 22.6439 181.484 22.1621C182.126 20.235 182.447 19.9138 184.373 20.0744C185.641 20.159 186.909 20.2882 188.153 20.415C189.271 20.5288 190.37 20.6408 191.433 20.7168C192.12 21.8959 192.868 23.0751 193.638 24.2911C194.127 25.0624 194.625 25.8485 195.124 26.6588C194.594 26.8354 194.016 26.9634 193.417 27.0963C192.926 27.2051 192.42 27.3172 191.914 27.4618C191.784 27.1365 191.681 26.8376 191.571 26.5223C191.411 26.0593 191.238 25.561 190.952 24.8923C190.5 25.4346 190.15 25.926 189.816 26.3952C189.557 26.7597 189.307 27.1107 189.026 27.4618C190.687 28.949 192.491 28.7682 194.359 28.581C195.921 28.4245 197.528 28.2635 199.135 29.0677C198.012 29.3889 197.37 29.5495 196.728 29.7101C196.169 29.812 195.609 29.8977 195.054 29.9826C193.86 30.1655 192.689 30.3447 191.593 30.6737C189.828 31.1555 189.507 34.6886 190.952 35.4915C191.593 35.8127 192.556 35.4915 193.359 35.1703C193.936 34.9776 194.514 34.6115 195.092 34.2453C195.477 34.0012 195.862 33.7571 196.247 33.5644C196.116 35.0059 197.054 35.0573 198.1 35.1146C198.337 35.1276 198.578 35.1408 198.814 35.1703C198.814 35.5718 198.774 35.9733 198.734 36.3748C198.694 36.7763 198.654 37.1778 198.654 37.5793C199.462 37.5793 200.271 37.5612 201.073 37.5432C202.659 37.5076 204.222 37.4726 205.714 37.5793C206.814 37.5793 207.82 37.9516 208.875 38.342C209.206 38.4643 209.542 38.5885 209.886 38.7034C210.207 38.864 210.689 39.1852 210.689 39.3458C210.319 40.9496 211.275 41.2266 212.174 41.4873C212.446 41.5659 212.712 41.6431 212.935 41.7547L212.936 41.7553C215.503 42.8793 218.07 44.0033 220.798 45.2878C220.477 46.7332 220.798 47.8574 222.082 48.8209C222.659 49.2064 223.064 49.7652 223.468 50.3241C223.738 50.6967 224.007 51.0693 224.328 51.3904C224.516 51.6258 224.691 51.8749 224.863 52.1217C225.28 52.7169 225.686 53.2982 226.254 53.6388C230.96 57.0927 233.826 61.7745 236.8 66.6339L237.005 66.9682C237.39 70.3067 239.723 71.7972 242.12 73.3277C242.721 73.7114 243.326 74.0977 243.905 74.5162C244.707 75.0782 245.469 75.6805 246.231 76.2827C246.994 76.8849 247.756 77.4872 248.558 78.0493C250.805 79.6552 251.928 81.9035 252.891 84.3125C253.051 84.6336 253.171 84.9548 253.292 85.276C253.412 85.5972 253.532 85.9184 253.693 86.2396C255.298 89.4515 257.704 89.9333 260.593 87.8456C263.321 85.9184 264.123 85.7578 266.69 87.685C268.616 89.1303 271.023 89.9333 272.949 90.0939C273.414 91.8004 273.13 93.357 272.821 95.0533L272.788 95.2329C272.763 95.3346 272.733 95.4444 272.702 95.5596C272.538 96.1724 272.332 96.9406 272.467 97.4813C273.269 101.014 272.146 104.066 270.702 107.117C270.221 108.241 270.221 109.044 270.702 110.168C271.183 111.132 271.344 112.095 271.344 113.059C271.344 113.701 270.862 114.504 270.381 114.986C268.456 116.431 266.53 117.877 266.851 120.768C266.851 120.928 266.851 121.089 266.69 121.249C265.831 121.802 265.113 122.519 264.392 123.239C263.228 124.401 262.056 125.571 260.272 126.067C259.149 126.388 258.025 126.87 257.223 127.673C254.174 130.724 250.484 131.527 246.472 130.564C245.954 130.477 245.436 130.321 244.915 130.164C243.499 129.737 242.06 129.304 240.535 130.243C240.214 130.457 239.75 130.243 239.287 130.029C239.055 129.921 238.823 129.814 238.609 129.761C237.967 129.44 237.165 129.119 236.523 130.403C237.005 130.724 237.647 131.046 238.128 131.206C240.053 131.849 240.374 132.17 240.374 134.097C240.374 134.9 240.214 135.864 239.893 136.666C238.77 139.557 238.449 142.127 241.658 144.054C233.795 148.229 231.709 151.441 232.993 157.704C233.474 157.086 233.895 156.497 234.296 155.938C234.832 155.189 235.33 154.493 235.881 153.85C236.684 152.726 237.486 151.602 238.449 150.317C239.412 151.12 239.091 151.923 238.609 152.726C238.181 153.261 237.771 153.814 237.361 154.368C236.541 155.474 235.721 156.58 234.758 157.544C232.993 159.31 232.191 161.238 232.833 163.646C232.913 163.968 232.913 164.249 232.913 164.53C232.913 164.811 232.913 165.092 232.993 165.413C233.795 169.749 228.661 174.567 224.168 173.282C222.402 172.8 220.477 172.479 218.23 172.158C218.077 172.721 217.891 173.268 217.708 173.804C217.319 174.949 216.947 176.043 216.947 177.136C216.786 181.151 214.058 182.918 210.849 184.203C210.689 184.283 210.488 184.323 210.287 184.363C210.087 184.403 209.886 184.444 209.726 184.524C208.763 184.684 208.121 185.327 207.961 186.451C207.8 187.575 207.64 188.699 205.875 188.699C205.554 188.699 205.072 189.342 204.751 189.824C204.11 191.269 202.826 191.429 201.542 191.429H196.568H196.247C193.359 191.429 193.038 191.59 190.791 193.517C188.705 195.444 186.619 197.211 184.533 198.817C182.928 200.102 181.003 200.423 178.917 200.262C175.066 199.941 171.536 198.656 168.005 197.211C163.031 194.963 158.057 192.875 152.922 190.787C151.959 190.466 150.354 190.305 149.552 190.787C148.056 191.685 146.684 192.77 145.321 193.847C144.49 194.504 143.663 195.158 142.813 195.766C142.893 195.846 142.933 195.966 142.973 196.087C143.013 196.207 143.053 196.328 143.133 196.408H147.947C147.773 197.108 147.767 197.787 147.762 198.445C147.752 199.597 147.744 200.685 146.824 201.708C146.022 202.51 146.503 203.635 147.626 204.438C159.019 213.27 169.61 222.906 179.88 233.024C182.28 235.426 185.019 237.42 187.745 239.405C189.21 240.472 190.672 241.536 192.075 242.659C192.726 243.218 193.391 243.763 194.053 244.306C195.676 245.637 197.286 246.958 198.654 248.441C202.184 251.974 203.789 256.47 203.789 261.449C203.789 262.979 203.959 264.453 204.131 265.937C204.248 266.945 204.366 267.958 204.431 268.997C204.539 269.538 204.501 270.152 204.465 270.74C204.448 271.025 204.431 271.304 204.431 271.566C204.302 273.429 204.122 275.292 203.943 277.155C203.673 279.949 203.404 282.744 203.307 285.538C202.986 296.94 202.505 308.503 200.419 319.906C200.162 321.279 199.95 322.699 199.735 324.14C199.549 325.395 199.359 326.665 199.135 327.935C198.493 331.79 198.173 335.644 198.654 339.659C198.975 342.068 198.814 344.477 198.493 346.725C197.852 352.667 197.531 358.609 198.012 364.551C198.227 366.647 198.352 368.761 198.477 370.881C198.726 375.096 198.977 379.334 199.938 383.501C201.296 389.542 200.383 389.902 196.266 391.527C196.005 391.629 195.731 391.737 195.445 391.852L191.593 393.298C190.149 393.779 189.026 394.422 188.705 396.188C188.384 397.794 186.78 398.276 185.496 398.597C180.201 400.043 174.905 401.327 169.61 402.612C168.3 402.94 166.915 403.119 165.507 403.301C164.846 403.387 164.179 403.473 163.512 403.576C161.105 403.897 160.624 404.218 160.303 406.627C159.822 410.481 159.501 414.496 159.34 418.35C159.18 425.738 159.18 432.965 159.18 440.352C159.037 448.346 157.753 456.087 156.456 463.912C156.293 464.89 156.131 465.869 155.971 466.85C155.887 467.432 155.847 468.014 155.806 468.619C155.767 469.182 155.727 469.764 155.65 470.383C157.55 470.091 158.651 469.132 159.681 468.235C159.782 468.147 159.882 468.06 159.982 467.974C162.355 466.193 164.719 464.412 167.08 462.634C174.94 456.712 182.771 450.813 190.791 445.009C201.863 436.979 214.058 430.877 226.735 425.417C237.647 420.759 249.039 418.832 260.753 418.672C267.172 418.511 273.59 418.35 280.009 418.029C284.561 417.812 289.04 417.449 293.495 417.087C295.636 416.914 297.771 416.74 299.906 416.584C301.351 416.423 302.795 416.263 304.239 416.263C307.448 416.423 310.497 415.781 312.743 413.211C313.706 412.087 315.15 411.766 316.755 411.927C319.002 412.087 321.248 412.248 323.495 412.248C325.174 412.248 326.853 412.196 328.522 412.144C330.999 412.067 333.453 411.991 335.85 412.087C339.06 412.248 341.948 411.124 344.836 409.839C345.959 409.357 346.12 408.554 346.12 407.43C346.28 403.415 346.601 399.24 346.922 395.225C346.922 394.582 347.083 393.779 347.243 392.976C348.848 386.874 354.785 385.107 359.438 389.443C360.401 390.246 361.203 391.049 362.647 392.494L362.648 392.495C362.725 392.106 362.803 391.756 362.874 391.436C363.096 390.432 363.251 389.731 363.129 389.122C362.487 386.231 362.808 383.341 363.45 380.45C364.252 376.596 364.734 372.581 364.573 368.566C364.457 366.59 364.761 364.53 365.06 362.508C365.174 361.736 365.287 360.969 365.376 360.215C365.456 358.93 365.576 357.605 365.696 356.28C365.817 354.955 365.937 353.631 366.017 352.346C366.098 350.258 366.138 348.17 366.178 346.083C366.218 343.995 366.258 341.907 366.338 339.819C366.338 339.016 366.338 338.374 366.659 337.732C367.563 335.469 367.91 333.127 368.261 330.761C368.408 329.769 368.556 328.772 368.745 327.775C369.227 324.563 370.992 321.993 373.238 319.745C373.401 319.582 373.564 319.425 373.725 319.271C374.354 318.668 374.941 318.104 375.324 317.336C375.958 316.195 376.566 315.054 377.169 313.923C378.094 312.189 379.006 310.477 379.978 308.824C381.582 306.094 383.508 303.846 386.878 303.525C387.84 303.525 388.643 302.883 389.445 302.24L389.445 302.24C390.147 301.713 390.828 301.122 391.511 300.529C392.701 299.496 393.897 298.458 395.222 297.743C396.987 296.78 399.073 296.137 400.998 296.298C403.54 296.581 405.709 295.744 407.942 294.883C408.247 294.765 408.553 294.647 408.861 294.532C410.626 293.729 412.07 293.086 414.156 293.729C414.798 293.943 415.583 293.729 416.367 293.514C416.76 293.407 417.152 293.3 417.526 293.247C418.89 293.006 420.214 292.725 421.538 292.444C422.862 292.163 424.185 291.882 425.549 291.641C427.796 291.32 429.882 291.641 431.647 293.086C432.24 293.531 433.107 293.702 433.868 293.852C433.931 293.865 433.993 293.877 434.054 293.889C435.819 294.05 437.584 294.05 439.349 294.05C439.569 294.05 439.79 294.031 440.003 294.012C440.413 293.977 440.798 293.944 441.114 294.05C443.902 295.083 446.756 294.92 449.591 294.757C451.162 294.667 452.728 294.578 454.272 294.692C455.396 294.853 456.679 295.335 457.642 295.816C458.25 296.182 458.859 296.57 459.476 296.964C460.486 297.609 461.52 298.269 462.616 298.868C463.419 299.349 464.382 299.671 465.344 299.831L470.158 300.795C470.577 300.934 470.982 301.087 471.381 301.238C472.36 301.608 473.305 301.965 474.33 302.079C476.577 302.401 478.181 303.525 479.626 304.97C480.802 306.094 481.997 307.201 483.192 308.307C485.581 310.52 487.97 312.732 490.216 315.088C493.265 318.139 495.993 321.512 498.4 325.045C502.251 330.505 504.497 336.447 504.979 343.031C505.139 345.28 505.621 347.367 506.744 349.455C508.188 352.185 508.669 355.397 507.546 358.77C506.744 361.018 506.423 363.587 506.263 365.996C506.102 369.369 505.621 372.42 504.337 375.471C504.016 376.435 503.856 377.399 504.016 378.362C504.193 379.367 504.218 380.371 504.243 381.368C504.286 383.08 504.328 384.768 505.139 386.392C505.3 386.713 505.139 387.195 504.979 387.516C504.604 388.266 504.283 389.069 503.963 389.872C503.321 391.478 502.679 393.083 501.609 394.261C497.758 398.276 495.03 402.933 492.463 407.751C492.161 408.354 491.797 408.895 491.448 409.412C491.24 409.72 491.038 410.02 490.858 410.321C490.216 411.605 490.216 411.766 490.537 414.175C491.067 413.645 491.451 413.211 491.797 412.822C492.078 412.504 492.335 412.215 492.623 411.927C493.694 410.686 494.744 409.446 495.789 408.212C497.72 405.932 499.631 403.676 501.609 401.488C504.337 398.758 507.546 396.831 510.916 394.904C513.117 393.631 515.377 392.433 517.643 391.232C522.81 388.493 528.005 385.74 532.579 382.056C534.665 380.289 537.392 379.165 539.96 378.683C545.095 377.88 547.662 374.187 549.588 369.851C552.476 363.748 553.92 357.324 554.081 350.579C554.081 347.046 553.278 343.674 552.155 340.301C549.909 333.396 548.304 326.49 547.341 319.424C546.378 312.679 547.502 306.255 550.711 300.152C553.76 294.05 557.29 288.268 562.906 284.253C568.843 279.917 575.583 277.508 582.964 277.027C594.036 276.224 603.503 280.078 612.008 286.823C612.57 287.305 613.131 287.746 613.693 288.188C614.255 288.63 614.816 289.071 615.378 289.553C618.587 292.283 621.475 295.495 623.24 299.51C624.042 301.416 624.97 303.26 625.905 305.119C626.467 306.236 627.031 307.358 627.573 308.503C629.499 312.679 630.461 317.015 630.782 321.512C631.103 327.293 631.103 327.293 636.078 329.702C640.731 331.95 640.731 332.432 638.805 337.089C637.923 339.016 637.121 341.024 636.318 343.031C635.516 345.039 634.714 347.046 633.831 348.973C632.708 351.382 631.424 353.791 628.857 354.915C627.894 355.397 627.733 356.2 627.894 357.164L628.857 360.536C629.659 364.23 628.054 366.478 624.203 367.121C621.315 367.602 618.908 370.975 619.871 373.705C620.833 376.596 620.513 378.683 617.785 380.289C616.501 380.932 616.341 381.895 616.341 383.18C616.501 390.246 609.922 395.225 603.022 393.458C601.096 392.976 599.331 392.173 597.566 391.37C594.999 390.407 594.357 390.728 593.876 393.298C593.234 396.67 593.394 397.152 596.283 398.758C597.406 399.4 598.69 399.882 599.973 400.364C602.38 401.327 604.787 402.291 607.034 403.254C609.28 404.379 610.885 406.145 611.687 408.393C613.336 413.344 615.887 417.793 618.468 422.295C619.153 423.489 619.84 424.686 620.513 425.898C620.834 426.38 621.315 427.023 621.796 427.504C621.976 427.704 622.158 427.901 622.34 428.098C623.62 429.485 624.885 430.855 625.166 432.965C625.278 433.751 625.941 434.538 626.604 435.325C626.888 435.662 627.172 436 627.413 436.337C626.931 436.979 626.61 437.3 626.29 437.621L626.289 437.622C625.487 438.585 625.647 439.549 626.61 440.191C629.499 441.958 629.98 445.009 630.301 447.739C630.461 450.148 630.943 452.397 631.745 454.805C632.868 458.499 633.831 462.193 634.794 466.047C635.596 469.259 635.757 469.259 638.645 468.135C642.095 466.77 645.545 465.445 648.995 464.12C652.445 462.795 655.895 461.47 659.345 460.105C662.634 458.82 665.923 457.576 669.213 456.331C672.502 455.087 675.792 453.842 679.082 452.557C681.328 451.754 683.093 450.309 684.377 448.221C686.784 444.367 689.993 441.476 693.684 438.907L694.031 438.663C697.134 436.494 700.321 434.265 701.868 430.395C702.509 428.629 704.114 427.986 705.879 427.344C707.323 426.701 708.447 426.059 709.73 425.256C710.228 424.93 710.724 424.599 711.22 424.269C714.876 421.832 718.527 419.398 723.049 418.832C723.146 418.813 723.248 418.793 723.353 418.773C724.114 418.628 725.033 418.453 725.456 418.029C726.739 416.423 728.505 416.263 730.43 416.102C732.677 415.781 734.963 415.5 737.25 415.219C739.536 414.938 741.823 414.657 744.07 414.336C747.76 413.693 748.242 413.051 748.883 409.518C749.204 407.269 749.525 405.182 749.846 403.094C750.167 400.364 749.204 399.079 746.316 398.918C741.823 398.597 739.577 396.67 738.293 392.334C737.811 390.889 736.849 389.443 735.886 388.159C735.811 388.059 735.737 387.961 735.663 387.863C734.78 386.696 733.96 385.613 733.96 383.983C733.96 383.019 733.318 381.735 732.516 380.932C731.232 379.647 730.43 378.202 730.591 376.274C730.751 374.347 729.467 373.223 728.023 372.26C727.702 372.099 727.341 371.938 726.98 371.778C726.619 371.617 726.258 371.457 725.937 371.296C723.209 369.851 722.567 368.245 723.851 365.515C724.653 363.909 724.814 362.303 724.653 360.697C724.493 358.609 725.135 357.003 726.579 355.397C728.825 352.828 729.628 349.455 730.27 345.922C729.959 345.715 729.648 345.574 729.294 345.414C729.1 345.326 728.892 345.233 728.665 345.119C728.665 344.204 728.578 343.288 728.492 342.373C728.289 340.237 728.087 338.101 728.986 335.965C728.986 335.92 728.999 335.85 729.013 335.768C729.051 335.559 729.101 335.278 728.986 335.162C727.863 332.753 729.307 331.468 731.072 330.505C733.318 329.381 733.639 327.614 733.479 325.366C733.158 319.584 735.244 314.927 740.058 311.555C745.514 307.7 751.29 306.737 757.548 308.343C758.03 308.503 758.511 308.664 758.993 308.664C762.12 308.124 764.884 309.253 767.676 310.392C769.039 310.948 770.409 311.507 771.83 311.876C772.792 312.197 773.755 312.358 774.879 312.518C776.162 312.679 777.486 312.759 778.81 312.839C780.134 312.92 781.457 313 782.741 313.161C785.03 313.288 786.614 314.626 788.211 315.975C788.629 316.328 789.048 316.682 789.481 317.015C789.796 317.24 790.099 317.479 790.4 317.715C791.17 318.321 791.927 318.917 792.85 319.263C796.702 320.869 799.109 323.92 800.553 327.614C801.515 330.023 802.639 332.271 804.083 334.359C805.527 336.447 806.008 338.695 805.848 341.265V341.266C805.848 343.032 805.848 344.959 806.169 346.725C806.49 349.134 807.613 349.616 810.02 349.455C810.862 349.395 811.726 349.402 812.596 349.41C814.048 349.422 815.515 349.435 816.92 349.134C819.474 348.566 821.776 349.128 824.161 349.71C824.474 349.786 824.787 349.862 825.104 349.937C827.485 350.587 829.939 350.945 832.418 351.306C833.613 351.48 834.814 351.655 836.015 351.864C837.138 352.025 838.261 352.346 839.384 352.667L839.385 352.667C839.728 352.781 840.051 352.937 840.367 353.089C840.94 353.364 841.493 353.631 842.113 353.631C845.162 353.791 847.569 355.076 849.976 356.521C850.844 357.018 851.809 357.419 852.721 357.798C852.988 357.909 853.251 358.018 853.506 358.127C853.666 358.288 853.907 358.368 854.148 358.448C854.388 358.529 854.629 358.609 854.789 358.77C855.511 359.372 856.223 359.984 856.935 360.596C859.072 362.433 861.208 364.27 863.615 365.836C866.232 367.552 868.393 369.726 870.554 371.9C872.234 373.59 873.915 375.281 875.81 376.756C880.303 380.129 883.673 384.786 886.08 390.086C886.641 391.29 887.283 392.494 887.925 393.699C888.567 394.903 889.209 396.108 889.77 397.312C890.149 397.975 890.36 398.694 890.568 399.402C890.713 399.895 890.857 400.384 891.054 400.846C891.295 401.568 891.576 402.291 891.856 403.014C892.137 403.736 892.418 404.459 892.659 405.182C892.766 405.556 892.891 405.931 893.015 406.306C893.265 407.055 893.515 407.805 893.622 408.554C893.862 409.678 894.063 410.843 894.263 412.007C894.464 413.171 894.665 414.336 894.905 415.46C895.133 416.599 895.381 417.719 895.628 418.832C896.076 420.857 896.52 422.863 896.831 424.935C896.991 425.738 896.67 426.701 896.349 427.504C895.868 428.95 896.029 429.913 896.991 431.198C900.116 435.277 903.816 438.666 907.507 442.045C908.175 442.658 908.843 443.269 909.507 443.885C911.754 445.973 913.96 448.02 916.167 450.068C918.373 452.116 920.579 454.163 922.826 456.251C923.52 456.883 924.239 457.489 924.963 458.1C926.081 459.043 927.211 459.997 928.282 461.069C929.084 461.872 929.886 462.996 930.207 464.12C930.689 465.565 931.331 466.69 932.293 467.653C932.46 467.82 932.608 467.987 932.75 468.148C933.016 468.45 933.263 468.728 933.577 468.938C939.514 473.916 944.007 480.019 946.895 487.246C947.858 489.655 949.463 491.261 951.709 492.545C955.201 494.667 958.499 496.886 961.829 499.126C962.784 499.769 963.742 500.413 964.707 501.057C965.14 501.346 965.573 501.602 966.049 501.884C966.633 502.23 967.282 502.614 968.077 503.145C968.133 502.581 968.189 502.116 968.239 501.709C968.33 500.955 968.398 500.397 968.398 499.772C968.398 498.587 968.359 497.363 968.319 496.12C968.279 494.835 968.237 493.53 968.237 492.224C968.237 490.458 967.756 488.852 966.633 487.406L964.707 484.516C963.584 482.749 963.584 480.983 964.867 479.377C966.793 476.968 966.953 474.238 966.472 471.507C966.395 471.031 966.319 470.555 966.243 470.079C965.369 464.616 964.501 459.186 962.139 454.163C960.856 451.754 961.177 449.185 961.819 446.455C963.905 438.104 967.435 430.234 972.73 423.329C974.518 421.042 976.122 418.633 977.731 416.215C978.721 414.726 979.714 413.234 980.753 411.766C980.914 411.525 981.114 411.324 981.315 411.124C981.516 410.923 981.716 410.722 981.877 410.481C982.375 409.84 982.652 409.483 983.016 409.313C983.473 409.099 984.068 409.178 985.407 409.357C984.673 407.521 983.986 405.732 983.31 403.972C982.212 401.112 981.143 398.329 979.951 395.546C976.902 388.961 974.335 382.216 972.249 375.311C971.928 374.347 971.767 373.544 971.928 372.42C974.015 373.601 974.973 375.603 975.963 377.672C976.724 379.262 977.503 380.891 978.828 382.216C978.988 379.647 978.025 377.72 977.063 375.953C975.779 373.705 974.335 371.457 972.73 369.369C972.141 368.484 971.01 367.734 970.083 367.12C970.001 367.066 969.92 367.012 969.842 366.96C969.622 366.813 969.393 366.675 969.166 366.537C968.399 366.072 967.646 365.616 967.274 364.872C967.06 364.39 966.864 363.891 966.668 363.391C966.276 362.392 965.884 361.393 965.349 360.536C964.736 359.309 963.684 358.082 962.752 356.995L962.621 356.842C962.363 356.541 962.128 356.228 961.9 355.925C961.279 355.099 960.715 354.347 959.893 354.112C957.978 353.601 957.18 352.175 956.368 350.724C956.16 350.351 955.951 349.977 955.721 349.616C952.351 344.316 950.907 338.374 949.784 332.271C949.543 330.944 949.573 329.436 949.604 327.95C949.613 327.458 949.623 326.969 949.623 326.49C949.623 324.242 949.142 322.475 947.056 321.03C946.093 320.387 945.451 318.621 945.13 317.336C943.847 311.715 944.488 306.255 946.093 300.795C946.468 299.617 946.824 298.439 947.181 297.261C947.894 294.906 948.607 292.551 949.463 290.195C950.907 285.859 953.956 282.969 957.646 280.56C963.263 276.866 969.521 275.581 975.939 274.939C980.753 274.457 985.728 275.581 990.381 277.187C995.195 278.954 999.688 281.202 1004.02 284.414C1011.08 289.553 1014.61 296.459 1016.7 304.488C1017.98 309.146 1018.3 313.803 1018.62 318.46C1018.62 320.548 1019.1 321.993 1021.03 323.117C1023.28 324.402 1024.08 326.811 1023.92 329.381C1023.6 332.914 1022.31 336.286 1020.39 339.177C1019.59 340.301 1018.3 341.265 1017.02 341.907C1015.25 342.71 1014.45 343.834 1014.61 345.761C1014.65 346.717 1014.68 347.673 1014.71 348.627C1014.8 351.518 1014.89 354.386 1015.25 357.164C1015.89 363.106 1018.94 367.763 1023.76 371.296C1025.42 372.542 1027.28 373.519 1029.12 374.488C1030.13 375.018 1031.14 375.546 1032.1 376.114C1033.55 376.917 1034.83 376.435 1035.79 375.793C1037.56 376.596 1039.16 377.238 1040.77 377.88C1042.42 378.569 1044.07 378.549 1045.72 378.529C1045.99 378.526 1046.27 378.523 1046.54 378.523C1047.76 378.555 1048.97 378.58 1050.19 378.606C1055.06 378.709 1059.92 378.811 1064.68 379.326C1069.81 379.808 1074.3 382.216 1077.83 385.91C1079.57 387.648 1081.09 389.606 1082.58 391.535C1083.3 392.46 1084.01 393.377 1084.73 394.261C1085.86 395.546 1086.98 396.831 1088.26 398.115C1089.25 399.099 1090.29 400.061 1091.35 401.033C1093.22 402.759 1095.13 404.514 1096.77 406.466C1098.05 407.858 1099.05 409.535 1100.05 411.212C1100.55 412.051 1101.05 412.89 1101.58 413.693C1101.9 414.255 1102.18 414.817 1102.46 415.379C1102.75 415.941 1103.03 416.504 1103.35 417.066C1104.28 418.991 1105.26 420.916 1106.23 422.849C1107.95 426.237 1109.68 429.648 1111.21 433.125C1111.85 434.57 1112.01 436.498 1112.01 438.264C1112.01 441.155 1113.14 443.403 1114.9 445.652C1122.92 456.082 1130.77 466.513 1138.63 476.944L1138.65 476.968C1139.72 478.36 1140.84 479.698 1141.97 481.036C1144.21 483.713 1146.46 486.389 1148.28 489.494C1148.47 489.853 1148.67 490.208 1148.86 490.561C1150.58 493.687 1152.21 496.647 1152.93 500.254C1153.18 501.621 1153.72 502.892 1154.24 504.142C1154.4 504.506 1154.55 504.869 1154.7 505.232C1155.5 506.999 1156.78 507.641 1158.71 507.32C1160.12 507.075 1161.51 506.876 1162.88 506.679C1165.1 506.362 1167.28 506.05 1169.46 505.554C1176.61 503.801 1183.89 503.376 1191.19 502.952C1191.92 502.909 1192.64 502.867 1193.37 502.823C1196.52 502.613 1199.6 502.265 1202.71 501.914C1204.35 501.73 1205.99 501.544 1207.65 501.378C1210.06 501.057 1211.5 499.772 1212.78 497.845C1217.12 491.1 1219.36 483.873 1220.65 476.004C1221.34 471.542 1222.64 466.959 1223.92 462.465C1224.11 461.783 1224.31 461.103 1224.5 460.426C1226.74 453.039 1229.63 445.812 1234.13 439.228C1235.57 436.979 1237.17 434.892 1238.94 432.965C1240.7 430.877 1241.83 428.628 1242.31 425.898C1242.71 423.651 1243.15 421.403 1243.59 419.156C1244.03 416.907 1244.47 414.658 1244.88 412.408C1246.32 404.86 1245.68 397.312 1243.91 389.764C1242.71 384.585 1241.78 379.406 1240.84 374.227C1240.53 372.5 1240.22 370.774 1239.9 369.048C1239.5 366.822 1239.11 364.597 1238.72 362.377C1237.88 357.547 1237.04 352.741 1236.05 348.01C1233 333.556 1230.43 319.263 1228.51 304.649C1228.19 302.561 1227.71 300.313 1226.9 298.386C1222.09 286.823 1220.65 274.618 1221.29 262.252C1221.45 258.076 1222.41 253.74 1223.37 249.565C1224.18 246.192 1225.62 242.98 1227.87 240.411C1228.99 239.126 1229.47 237.681 1229.31 236.075C1228.99 229.651 1229.31 223.227 1230.27 216.803C1230.38 215.947 1230.35 215.09 1230.31 214.234C1230.29 213.806 1230.27 213.377 1230.27 212.949V212.944C1230.27 210.859 1230.27 208.933 1230.43 206.847C1230.76 203.474 1229.95 200.583 1227.23 198.496C1224.23 196.194 1221.32 193.785 1218.42 191.376C1212.61 186.558 1206.79 181.74 1200.27 177.779C1198.3 176.562 1196.29 175.509 1194.28 174.461C1192.84 173.71 1191.4 172.962 1190 172.158C1187.91 171.034 1185.83 169.749 1184.06 168.143C1182.62 167.019 1181.33 166.698 1179.73 167.18C1175.72 168.464 1171.54 169.91 1167.53 171.355C1166.2 171.832 1164.87 172.251 1163.5 172.682C1162.56 172.977 1161.61 173.277 1160.63 173.603C1155.66 175.209 1150.68 174.567 1145.71 173.122C1142.98 172.319 1141.38 170.391 1139.77 168.143C1138.65 166.377 1137.37 164.61 1135.92 163.004C1135.51 162.309 1134.73 161.855 1134.01 161.433C1133.89 161.367 1133.78 161.302 1133.68 161.238C1131.27 159.953 1129.5 158.186 1128.22 155.938C1127.98 155.55 1127.74 155.158 1127.5 154.766C1126.16 152.562 1124.81 150.347 1122.76 148.711C1121.41 147.654 1120.62 145.746 1119.86 143.92C1119.81 143.804 1119.76 143.688 1119.71 143.572C1119.61 143.337 1119.51 143.125 1119.43 142.933C1118.76 141.42 1118.66 141.199 1116.67 141.484C1113.85 141.887 1112.27 140.158 1110.79 138.548C1110.5 138.232 1110.22 137.92 1109.93 137.63C1108.32 136.024 1108.8 133.936 1109.45 132.009C1109.61 131.447 1109.89 130.925 1110.17 130.403C1110.45 129.881 1110.73 129.359 1110.89 128.797C1111.85 126.388 1112.65 123.979 1113.3 121.571C1113.42 120.581 1113.26 119.497 1113.1 118.464C1113.06 118.155 1113.01 117.851 1112.98 117.556C1112.85 116.533 1112.62 115.409 1112.37 114.184C1112.3 113.869 1112.24 113.548 1112.17 113.22L1112.04 113.123C1111.39 112.634 1110.36 111.863 1109.61 110.811C1109.11 110.219 1108.8 109.507 1108.49 108.785C1108.29 108.33 1108.09 107.872 1107.84 107.438C1105.75 103.423 1103.67 99.4084 1101.74 95.3935C1100.78 93.3058 1100.14 91.0575 1099.5 88.8091C1099.01 86.882 1099.5 86.2396 1101.42 85.276L1109.61 81.4218C1111.21 80.6188 1112.01 79.4946 1112.01 77.7281C1112.01 76.6039 1112.01 75.6403 1112.17 74.5162C1112.33 72.1072 1111.69 70.5013 1109.45 68.8953C1107.94 67.969 1106.85 66.3748 1105.76 64.7748C1105.34 64.1557 1104.92 63.5358 1104.47 62.9533C1104.24 62.6722 1104.02 62.3774 1103.8 62.0849C1103.27 61.3748 1102.75 60.6782 1102.06 60.2232C1098.85 58.1355 1098.05 55.8871 1100.14 52.5146C1100.78 51.551 1101.42 50.6276 1102.06 49.7042C1102.71 48.7808 1103.35 47.8574 1103.99 46.8938C1104.79 45.609 1105.43 44.3243 1106.08 43.0395C1107.52 39.5064 1109.93 36.7763 1112.81 34.3674C1113.98 33.4147 1115.07 32.3922 1116.14 31.392C1116.7 30.8747 1117.24 30.3634 1117.79 29.8707C1118.09 29.6293 1118.37 29.3424 1118.64 29.0614C1119.1 28.5947 1119.53 28.144 1120.04 27.9436C1123.84 26.368 1126.25 23.2898 1128.67 20.2006C1129.21 19.5112 1129.75 18.8212 1130.31 18.1473C1131.59 16.5413 1132.55 15.4171 1134.8 15.7383C1136.08 16.0595 1137.04 15.5777 1137.85 14.4536C1138.97 12.8476 1140.57 12.687 1142.02 13.49C1144.75 14.7748 1146.83 14.1324 1149.24 12.8476L1149.82 12.5358C1154.43 10.0728 1158.93 7.66958 1164.16 6.745C1165.06 6.56549 1165.96 6.23549 1166.88 5.89518C1167.61 5.62659 1168.36 5.35157 1169.14 5.13905C1174.75 3.53309 1180.53 1.92714 1186.31 0.321191C1186.95 0 1187.75 0 1188.39 0C1189.21 0.018569 1190.03 0.0306969 1190.85 0.0428381C1197.11 0.135701 1203.44 0.229349 1209.25 3.2119C1211.02 4.01488 1212.78 4.01488 1214.39 3.3725C1217.28 2.40893 1219.36 3.2119 1221.29 5.62083C1223.7 8.67214 1225.94 8.83273 1228.83 6.42381C1230.59 4.97845 1232.36 4.97845 1234.13 5.46024C1235.73 5.78143 1236.21 6.90559 1235.25 8.02976C1233.32 9.9569 1233.8 11.7234 1235.09 13.49C1235.33 13.8358 1235.56 14.1816 1235.8 14.5252C1236.97 16.2561 1238.11 17.9315 1239.58 19.2714C1242.51 21.9378 1244.67 25.047 1246.88 28.2313C1247.33 28.8827 1247.78 29.5373 1248.25 30.1919C1248.37 30.382 1248.47 30.572 1248.57 30.7522C1248.72 31.0288 1248.85 31.2822 1249.05 31.4767C1251.07 33.4988 1251.79 36.1704 1252.5 38.7905C1252.58 39.0836 1252.66 39.3761 1252.74 39.667C1254.02 44.0031 1254.99 48.4997 1255.79 52.9964C1256.59 57.4931 1256.27 62.1503 1254.5 66.4864C1254.18 67.6106 1254.02 68.5741 1253.86 69.6983C1253.06 75.6403 1252.26 81.4218 1251.29 87.3638C1250.81 90.2545 1251.29 92.824 1252.26 95.3935C1254.02 100.051 1256.91 104.226 1260.12 107.92C1262.37 110.489 1264.77 113.059 1267.18 115.468C1267.34 115.548 1267.5 115.669 1267.66 115.789C1267.82 115.91 1267.98 116.03 1268.14 116.11C1268.4 116.167 1268.67 116.226 1268.93 116.284C1272.38 117.053 1275.92 117.844 1279.06 115.307C1281.46 113.38 1283.87 111.935 1286.92 110.971C1289.55 110.195 1292.04 108.368 1294.38 106.651L1294.62 106.475C1297.99 103.905 1301.36 102.46 1305.69 102.62C1309.19 102.763 1312.65 102.779 1316.11 102.795C1320.43 102.815 1324.75 102.834 1329.12 103.102C1338.91 103.584 1348.38 105.832 1357.52 108.884C1357.96 109.026 1358.4 109.167 1358.84 109.308C1363.37 110.757 1367.85 112.191 1371.8 114.826C1373.14 115.68 1374.49 116.528 1375.82 117.375C1381.53 120.987 1387.2 124.574 1392.66 128.476C1400.69 134.097 1408.39 139.878 1416.25 145.82C1420.58 149.032 1424.92 152.565 1428.93 156.259C1430.47 157.608 1431.84 159.13 1433.2 160.653Z" fill="white"/>
</svg>
