<svg width="74" height="139" viewBox="0 0 74 139" fill="none" xmlns="http://www.w3.org/2000/svg">
<g clip-path="url(#clip0)">
<path d="M43.9669 37.7473L38.0356 49.0809L55.3588 82.0512H18.3588L61.4784 0H49.5216L0.188293 94.4151H73.8117L43.9669 37.7473Z" fill="white"/>
<path d="M35.7761 22.0115L31.3511 13.6753H19.4885L29.8448 33.4388L35.7761 22.0115Z" fill="white"/>
<path d="M9.8855 97.9744H13.5573L23.4427 120.454H19.3003L17.0407 115.115H6.30789L4.04835 120.454H0L9.8855 97.9744ZM15.5344 111.556L11.6743 102.658L7.81425 111.556H15.5344Z" fill="white"/>
<path d="M30.6921 109.121L22.8778 98.1616H27.4911L33.0458 106.123L38.6005 98.1616H43.1196L35.3053 109.027L43.402 120.454H38.7888L32.8575 112.024L26.9262 120.454H22.4071L30.6921 109.121Z" fill="white"/>
<path d="M45.1909 98.1616H49.1451V120.454H45.1909V98.1616Z" fill="white"/>
<path d="M60.5369 97.9744H64.2087L74.0942 120.454H69.9517L67.6921 115.115H56.9593L54.6998 120.454H50.6514L60.5369 97.9744ZM66.0916 111.556L62.2316 102.658L58.3715 111.556H66.0916Z" fill="white"/>
<path d="M61.0076 130.851C60.7252 130.851 60.4427 130.945 60.2544 131.132C60.0661 131.319 59.972 131.6 59.972 131.975C59.972 132.35 60.0661 132.631 60.2544 132.818C60.4427 133.005 60.7252 133.099 61.0076 133.099C61.2901 133.099 61.5725 133.005 61.7608 132.724C61.9491 132.443 62.0432 132.256 62.0432 131.881C62.0432 131.507 61.9491 131.226 61.7608 131.038C61.6666 130.945 61.3842 130.851 61.0076 130.851Z" fill="white"/>
<path d="M0.188293 124.013V139.094H73.8117V124.013H0.188293ZM7.7201 133.474C7.34351 133.848 6.87277 134.036 6.40203 134.036C6.21374 134.036 5.9313 134.036 5.743 133.942C5.55471 133.848 5.36641 133.755 5.17812 133.567V135.441H4.04834V130.008H5.08397V130.476C5.27226 130.289 5.46056 130.195 5.64885 130.102C5.83715 130.008 6.11959 130.008 6.30789 130.008C6.87277 130.008 7.24936 130.195 7.62595 130.57C8.00254 130.945 8.19084 131.507 8.19084 132.069C8.28499 132.631 8.09669 133.099 7.7201 133.474ZM15.8168 130.851C15.7226 130.757 15.6285 130.757 15.5343 130.757C15.3461 130.757 15.2519 130.851 15.1578 131.038C15.0636 131.226 14.9695 131.6 14.9695 132.162V132.35V133.942H13.9338V129.914H14.7812V130.383C14.8753 130.195 14.9695 130.008 15.1578 129.914C15.3461 129.821 15.4402 129.727 15.6285 129.727C15.7226 129.727 15.9109 129.727 16.0051 129.821L15.8168 130.851ZM25.514 133.099C25.3257 133.474 25.0433 133.661 24.7608 133.848C24.4784 134.036 24.1018 134.129 23.7252 134.129C23.1603 134.129 22.6896 133.942 22.2188 133.474C21.8422 133.099 21.5598 132.537 21.5598 131.975C21.5598 131.319 21.7481 130.851 22.2188 130.383C22.5954 130.008 23.0662 129.821 23.631 129.821C24.0076 129.821 24.3842 129.914 24.6667 130.102C25.0433 130.289 25.2315 130.57 25.4198 130.851C25.6081 131.132 25.7023 131.507 25.7023 131.881C25.7964 132.35 25.7023 132.724 25.514 133.099ZM33.5165 130.851H32.9517V134.036H31.916V130.851H31.3511V130.008H31.916V128.509H32.9517V130.008H33.5165V130.851ZM42.9313 133.099C42.743 133.474 42.4606 133.661 42.1781 133.848C41.8957 134.036 41.5191 134.129 41.1425 134.129C40.5776 134.129 40.1069 133.942 39.6361 133.474C39.2595 133.099 38.9771 132.537 38.9771 131.975C38.9771 131.319 39.1654 130.851 39.6361 130.383C40.0127 130.008 40.4835 129.821 41.0483 129.821C41.4249 129.821 41.8015 129.914 42.084 130.102C42.4606 130.289 42.6489 130.57 42.8371 130.851C43.0254 131.132 43.1196 131.507 43.1196 131.881C43.2137 132.35 43.1196 132.724 42.9313 133.099ZM50.2748 132.912C50.4631 133.099 50.8397 133.193 51.1221 133.193C51.5929 133.193 51.9695 133.005 52.1578 132.724L52.9109 133.286C52.4402 133.848 51.8753 134.129 51.1221 134.129C50.369 134.129 49.8982 133.942 49.4275 133.474C49.0509 133.099 48.8626 132.537 48.8626 131.975C48.8626 131.6 48.9567 131.226 49.145 130.945C49.3333 130.664 49.6158 130.383 49.9924 130.195C50.369 130.008 50.7455 129.914 51.1221 129.914C51.4987 129.914 51.8753 130.008 52.1578 130.195C52.4402 130.383 52.7226 130.57 52.9109 130.851L52.0636 131.319C51.8753 131.132 51.7812 131.038 51.5929 130.945C51.4046 130.851 51.2163 130.851 51.028 130.851C50.6514 130.851 50.369 130.945 50.0865 131.226C49.8982 131.413 49.7099 131.694 49.7099 132.069C49.9924 132.35 50.0865 132.631 50.2748 132.912ZM62.8906 133.099C62.7023 133.474 62.4198 133.661 62.1374 133.848C61.855 134.036 61.4784 134.129 61.1018 134.129C60.5369 134.129 60.0662 133.942 59.5954 133.474C59.2188 133.099 58.9364 132.537 58.9364 131.975C58.9364 131.319 59.1247 130.851 59.5954 130.383C59.972 130.008 60.4428 129.821 61.0076 129.821C61.3842 129.821 61.7608 129.914 62.0433 130.102C62.4198 130.289 62.6081 130.57 62.7964 130.851C62.9847 131.132 63.0789 131.507 63.0789 131.881C63.173 132.35 63.0789 132.724 62.8906 133.099ZM70.0458 134.036H69.0102V128.509H70.0458V134.036Z" fill="white"/>
<path d="M23.7252 130.851C23.4428 130.851 23.1603 130.945 22.972 131.132C22.7837 131.319 22.6896 131.6 22.6896 131.975C22.6896 132.35 22.7837 132.631 22.972 132.818C23.1603 133.005 23.4428 133.099 23.7252 133.099C24.0076 133.099 24.2901 133.005 24.4784 132.724C24.6667 132.537 24.7608 132.256 24.7608 131.881C24.7608 131.507 24.6667 131.226 24.4784 131.038C24.2901 130.945 24.0076 130.851 23.7252 130.851Z" fill="white"/>
<path d="M6.11961 130.851C5.83716 130.851 5.55472 130.945 5.36643 131.132C5.17813 131.319 5.08398 131.6 5.08398 131.975C5.08398 132.35 5.17813 132.631 5.36643 132.818C5.55472 133.005 5.83716 133.193 6.11961 133.193C6.40205 133.193 6.68449 133.099 6.87279 132.818C7.06108 132.631 7.15523 132.35 7.15523 131.975C7.15523 131.6 7.06108 131.319 6.87279 131.132C6.77864 130.945 6.4962 130.851 6.11961 130.851Z" fill="white"/>
<path d="M41.0483 130.851C40.7659 130.851 40.4834 130.945 40.2951 131.132C40.1068 131.319 40.0127 131.6 40.0127 131.975C40.0127 132.35 40.1068 132.631 40.2951 132.818C40.4834 133.005 40.7659 133.099 41.0483 133.099C41.3308 133.099 41.6132 133.005 41.8015 132.724C41.9898 132.537 42.0839 132.256 42.0839 131.881C42.0839 131.507 41.9898 131.226 41.8015 131.038C41.7074 130.945 41.4249 130.851 41.0483 130.851Z" fill="white"/>
</g>
<defs>
<clipPath id="clip0">
<rect width="74" height="139" fill="white"/>
</clipPath>
</defs>
</svg>
